<mxfile host="app.diagrams.net" modified="2024-03-10T16:32:15.907Z" agent="Mozilla/5.0 (Windows NT 10.0; Win64; x64) AppleWebKit/537.36 (KHTML, like Gecko) Chrome/121.0.0.0 Safari/537.36 OPR/107.0.0.0 (Edition Yx GX 03)" etag="v6AOivtRigLZQye7wBkl" version="24.0.4" type="device">
  <diagram name="Страница — 1" id="cxS7pJsz9LwQPx0jvxNi">
    <mxGraphModel dx="2969" dy="1435" grid="1" gridSize="10" guides="1" tooltips="1" connect="1" arrows="1" fold="1" page="1" pageScale="1" pageWidth="827" pageHeight="1169" math="0" shadow="0">
      <root>
        <mxCell id="0" />
        <mxCell id="1" parent="0" />
        <mxCell id="Z1L8P6y6DJ4cS7PngGkb-2" value="" style="shape=image;verticalLabelPosition=bottom;labelBackgroundColor=default;verticalAlign=top;aspect=fixed;imageAspect=0;image=data:image/png,iVBORw0KGgoAAAANSUhEUgAABVMAAAJkCAYAAAAcBbF+AAAgAElEQVR4XuydC5QVxbX3N4Esg08EEpO7CDHLGXTQiVyDwIwvIGrChPhmBB+IrwEFdcZEEzXGD1HB50wUUUYFfCRGIvIQB0ETwJsMSkQlyOLqgBDJuoasKOYKKzHRO19Xn9Pn9OnT53R1n37sqv73WqzEmXrs+u3aPaf+p6p2j27jITwgAAIgAAIgAAIgAAIgAAJaEfh//+//0fTp07UaEwYDAqoROOmkk2jNmjWqmQ17QQAEQAAEyhDoATEV8wMEQAAEQAAEQAAEQAAE9CMgxNQlS5ZQW1ubfoPDiEBAAQILFiygHTt2QExVwFcwEQRAAAT8EICY6ocWyoIACIAACIAACIAACICAIgSEmCp2xGFXnCIOg5naEUAMaudSDAgEQAAETAIQUzERQAAEQAAEQAAEQAAEQEBDAhByNHQqhqQUAcSgUu6CsSAAAiAgTQBiqjQqFAQBEAABEAABEAABEAABdQhAyFHHV7BUTwKIQT39ilGBAAiAAMRUzAEQAAEQAAEQAAEQAAEQ0JAAhBwNnYohKUUAMaiUu2AsCIAACEgTgJgqjQoFQQAEQAAEQAAEQAAEQEAdAhBy1PEVLNWTAGJQT79iVCAAAiAAMRVzAARAAARAAARAAARAAAQ0JAAhR0OnYkhKEUAMKuUuGAsCIAAC0gQgpkqjQkEQAAEQAAEQAAEQAAEQUIcAhBx1fAVL9SSAGNTTrxgVCIAACEBMxRwAARAAARAAARAAARAAAQ0JQMjR0KkYklIEEINKuQvGggAIgIA0AYip0qhQEARAAARAAARAAARAAATUIQAhRx1fwVI9CSAG9fQrRgUCIAACEFMxB0AABEAABEAABEAABEBAQwIQcjR0KoakFAHEoFLugrEgAAIgIE0AYqo0KhQEARAAgXAIiA/WeEAABJIlMGnSJDr00EOTNQK9g0DEBCDkRAwYzYOABwHEIKYICIAACOhJAGKqnn7FqEAABBgT6NGjBx199NHUp08fxlbCNBDQl8DatWtp9erVNHLkSH0HiZGBgEEAQg6mAQgkSwAxmCx/9A4CIAACURGAmBoVWbQLAiAAAiUICDEVQg6mBwgkRwAxmBx79BwvAQg58fKOrrcVNLlHA7VTE3V0z6Ux0XWElkMmgBgMGSiaAwEQAAEmBCCmMnEEzAABEEgPAQg56fE1RsqTAGKQp19gVfgEIOSEzzSZFiGmJsO98l4Rg5UzRAsgAAIgwJEAxFSOXoFNIAACWhOAkKO1ezE4BQggBhVwEkwMhQCEnFAwMmgEYioDJwQyATEYCBsqgQAIgAB7AhBT2bsIBoIACOhGAEKObh7FeFQjgBhUzWOwNygBCDlByYVTb2tbPVW3rMs1VtfaRZ3NVdn/tgTSOmpqImpvF+XqqLWrk5qrtlJbfTVZVZs6Oogaio/5O9tv6uimubk7AMq1H8740Io3AcSgNyOUAAEQAAEVCUBMVdFrsBkEQEBpAhBylHYfjNeAAGJQAydiCFIEIORIYYqk0IrJPaih3aXppg7qNhVPS+y0lxF3ol5H79iE1MIW8nemlmo/L9iWah93rkbi8BKNIgbjpI2+QAAEQCA+AhBT42ONnkAABEDAJAAhBxMBBJIlgBhMlj96j48AhJz4WBf0tLWN6qtbaF1up6nx29zPiDI7SPNiZ8GOVbe6KyZTD1OZzYqpVpm6VurqbKbMXlfnVQAl2k8ISVq7RQym1fMYNwiAgO4EIKbq7mGMDwRAgB0BCDnsXAKDUkYAMZgyh6d4uBByEnK+JX7mdqFm7LB2k2bE0y6a3EMc3beO9mdtda3rEEpz4qrb+Kz28sf8M1cHJMQi5d0iBlM+ATB8EAABbQlATNXWtRgYCIAAVwIQcrh6BnalhQBiMC2exjgh5CQ0BxIVU507Xx1ibUJI0totYjCtnse4QQAEdCcAMVV3D2N8IAAC7AhAyGHnEhiUMgKIwZQ5PMXDhZCTkPPLHvP32DnqUjefaMpxzN869u86TOxMTcj7Bd0iBjl4ATaAAAiAQPgEIKaGzxQtggAIgEBZAhByMEFAIFkCiMFk+aP3+AhAyImPtbMn+QRUzp2jW6mtggRUlLtHFWJqct7P94wY5OAF2AACIAAC4ROAmBo+U7QIAiAAAhBTMQdAgDEBiKmMnQPTQiUAISdUnL4by+8ozVQtSDSVSxjldgy/UFBt6uggahD3q2Z3pmYtKRJsXRNS4Zi/b8eFWAExGCJMNAUCIAACjAhATGXkDJgCAiCQDgIQctLhZ4ySLwHEIF/fwLJwCUDICZcnWgMBvwQQg36JoTwIgAAIqEEAYqoafoKVIAACGhGAkKORMzEUJQkgBpV0G4wOQABCTgBoqAICIRJADIYIE02BAAiAACMCEFMZOQOmgAAIpIMAhJx0+Bmj5EsAMcjXN7AsXAIQcsLlidZAwC8BxKBfYigPAiAAAmoQgJiqhp9gJQiAgEYEIORo5EwMRUkCiEEl3QajAxCAkBMAGqqAQIgEEIMhwkRTIAACIMCIAMRURs6AKSAAAukgACGHg5+tLMf2ZB4uP1sxmXo0tNsMLkz+IX7hTDDS1NFNc8dYVfLZlJuaiNrb1xm/QDKQpGcAYjBpD6D/uAhAyImLNPoBAXcCiEHMDBAAARDQkwDEVD39ilGBAAgwJgAhh4NzJMTUrW1UX91CQv4seGzZkosyKWcL5jM2W/3YWygWZDkQSZMNiME0eTvdY4WQk27/Y/TJE0AMJu8DWAACIAACURCAmBoFVbQJAiAAAmUIQMjhMD0kxFRrV6pNPC2w3BJbC37vbDcvpuYFVg7jT7cNiMF0+z9No4eQkyZvY6wcCSAGOXoFNoEACIBA5QQgplbOEC2AAAiAgC8CEHJ84YqosISY6roz1XZEv+gKALupVrn8Mf/Wrk5qropoOGjWFwHEoC9cKKwwAQg5CjsPpmtBADGohRsxCBAAARAoIgAxFZMCBEAABGImACEnZuCu3UmIqaJeOUG1y3mfamFHmbtTIaZy8LbTBsQgR6/ApigIQMiJgiraBAF5AohBeVYoCQIgAAIqEYCYqpK3YCsIgIAWBCDkcHBj/vi9lTAqn0iq9J2m1h2pZp1q607VcnegQkzl4G2IqRy9AJviIAAhJw7K6AMEShNADGJ2gAAIgICeBCCm6ulXjAoEQIAxAYipHJyzldrqq6mlKLuUsC0rjpY8xp8/6l8qARXl7lGFmMrB2xBTOXoBNsVBAEJOHJTRBwhATMUcAAEQAIG0EYCYmjaPY7wgAAKJE4CYmrgLMgY4jvA3dXQQNTRQuyWmijJFgqrtztTsMIoEVdeEVMX1mFBIpRmIwVS6PZWDhpiaSrdj0IwIIAYZOQOmgAAIgECIBCCmhggTTYEACICADAEIOTKUUAYEoiOAGIyOLVrmRUAIOU899RRdcMEFvAyDNSCQEgJr1qyhzz77jH73u9+lZMQYJgiAAAikgwDE1HT4GaMEARBgRABCDiNnwJRUEkAMptLtqRz0PffcQ7Nnz6ZvfvObrMb/1ltvUVVVFe2///6s7IIxIBA2gffff5+OPvpoeu6558JuGu2BAAiAAAgkSABiaoLw0TUIgEA6CUDISaffMWo+BBCDfHwBS6IlwPWIMWIwWr+jdT4EuMYgH0KwBARAAATUJAAxVU2/wWoQAAGFCWARqbDzYLoWBBCDWrgRg5AgwFXIQQxKOA9FtCDANQa1gItBgAAIgECCBCCmJggfXYMACKSTABaR6fQ7Rs2HAGKQjy9gSbQEuAo5iMFo/Y7W+RDgGoN8CMESEAABEFCTAMRUNf0Gq0EABBQmgEWkws6D6VoQQAxq4UYMQoIAVyEHMSjhPBTRggDXGNQCLgYBAiAAAgkSgJiaIHx0DQIgkE4CWESm0+8YNR8CiEE+voAl0RLgKuQgBqP1O1rnQ4BrDPIhBEtAAARAQE0CEFPV9BusBgEQUJgAFpEKOw+ma0EAMaiFGzEICQJchRzEoITzUEQLAlxjUAu4GAQIgAAIJEgAYmqC8NE1CIBAOglgEZlOv2PUfAggBvn4ApZES4CrkIMYjNbvaJ0PAa4xyIcQLAEBEAABNQlATFXTb7AaBEBAYQJYRCrsPJiuBQHEoBZuxCAkCHAVchCDEs5DES0IcI1BLeBiECAAAiCQIAGIqQnCR9cgAALpJIBFZDr9jlHzIYAY5OMLWBItAa5CDmIwWr+jdT4EuMYgH0KwBARAAATUJAAxVU2/wWoQAAGFCWARqbDzYLoWBBCDWrgRg5AgwFXIQQxKOA9FtCDANQa1gItBgAAIgECCBCCmJggfXYMACKSTABaR6fQ7Rs2HAGKQjy9gSbQEuAo5iMFo/Y7W+RDgGoN8CMESEAABEFCTAMRUNf0Gq0EABBQmMHDgQNq5c6fCI4DpIKA2gYMPPpiWLl1KJ5xwgtoDgfUg4EGAq5ADMRVTNy0EuMZgWvhjnCAAAiAQFQGIqVGRRbsgAAIgUIKAWES2trbSkCFD2DBasGABbdy40bQLDwjoTmDUqFG0evVqGjlypO5DxfhSTkBOyFlBk3s0ULsbq7pW6upspirzd1a5Omrt6qTmzA8zv5ncgxrMBop/59YsbzHVGmcTdXTPpTGRziGZvmTKRGokGq+AgFwMVtABqoIACIAACCRCAGJqItjRKQiAQJoJcFxEig/7a9euNQUmPCCgOwGOMag7c4wvGQJyQk4ZMdXURy1BtYSYumIy9TCVVDkhVTTJOwbjFC9l+pIpk8z8Qq/eBNxiUHyRJ77A3r17d64Bt595t44SIAACIAACSRGAmJoUefQLAiCQWgIcF5EQU1M7HVM5cI4xmEpHYNCRE/Anpjp2Ym5to/rqFlqXE0ldxNSiMnJD4h2D3MRLbvbI+RilMgQgpmImgAAIgICeBCCm6ulXjAoEQIAxAY6LSIipjCcMTAudAMcYDH2QaBAESgg5xWBKiXVbqa2+mlrWETV1dNPcMU4xtfSxfy/4fmNwa1s9VQtDsk9daxd15u4ZyNvR1ETU3i7K5XfJOutmxmK3MD9O8dOmjg6iBnHtQaG4XL6d8jaU5uHGXs4eL8b4PQ8CEFN5+AFWgAAIgEDYBCCmhk0U7YEACICABwG/i8g4gEJMjYMy+uBCgGMMcmEDO/QiEN3O1CeIJmaEVkN9pO5CddITop8YzN/H6mg216/bNQUZIdS4DDZ7l2th3bwYWyhcFpbKi6mlbMi3U9qG8neuOsVUOXs8AaMAGwIQU9m4AoaAAAiAQKgEIKaGihONgQAIgIA3AT+LSO/WwikBMTUcjmhFDQIcY1ANcrBSNQL+xNQSo3O5MzW/AzRTp3i3Z3lS0jHodo1A7mfOHbPielfbjlWrnGsSraxQ6tZ+7g5YR5ly7eSSczls8JwwDjFVxh7PNlGAEwERg3feeSd96Utfypm1Z88e+vzzz+mggw4q+7OoxzF//nw644wzou4G7YMACICAlgQgpmrpVgwKBECAMwHpRWSMg4CYGiNsdJU4AY4xmDgUGKAlgYrF1IJdp4W7L4WAesYSa+en475VD5rSMWgJm47dr9ZO0Yx42mVsQBXH8h0JsHKiqJsx2bJd2eRZruPMjkmmnaqgVx44xFTX8eLOVJWDU8Tggw8+SEceeWRuGCL5lBBUjzvuuLI/i3LcIulobW0t/fGPf4yyG7QNAiAAAtoSgJiqrWsxMBAAAa4EpBeRMQ4AYmqMsNFV4gQ4xmDiUGCAlgT8ialegmheTM3vRM3/rPAe0/I4pWMwMjE1u6uVKhVTS90nKzudIKbKklK1HNdj/iIGv/jFL9JDDz1El156qap4YTcIgAAIJEYAYmpi6NExCIBAWglILyJjBAQxNUbY6CpxAhxjMHEoMEBLAtGIqYU7QPOJmRw7Q8sQlY7Bssf8rf5K7ArN1S0jEru0nx+P8yqAcmJzSDtTZezRcqbqOyjOYqoQUZ999lnatm0b9evXT18nYGQgAAIgEAEBiKkRQEWTIAACIFCOgPQiMkaMEFNjhI2uEifAMQYThwIDtCQQh5hKZEuaVHCvaGmkfmJQPgFVsZhbsm7OTrmET97thCSm2lkW4fPaOazlFFZ+UJzF1JdffpmuvPJKOuaYY+jpp59WnjUGAAIgAAJxEoCYGidt9AUCIAACBgE/i8i4gEFMjYs0+uFAgGMMcuACG/QjEI+YanCzJYWSOe7vNwbzu0UzPirso7yQWSSEFgm+hYJqU0cHUYO4g7VQvCzfTlhiqhidnD36zVY9R8RZTF29erWZGKu+vp5efPFFOvXUU/V0AkYFAiAAAhEQgJgaAVQ0CQIgAALlCPhdRMZBE2JqHJTRBxcCHGOQCxvYoRcBOTE1/jEjBuNnjh6TIaBCDIrdqc8//zy9++671Lt372RAoVcQAAEQUIwAxFTFHAZzQQAE1CfAcREJMVX9eYURyBPgGIPy1qMkCMgTUEHI8fryUX60fEp2d3cX7NZ1tyx/LYF4J8k+Ztt4lCGgQgzu2bOHqqqq6IILLqB77rlHGbYwFARAAASSJAAxNUn66BsEQCCVBLyFnHx25CJABccTSx8rzB9HlEsIopeY6siO7DrLZMqkcnqmYtDeMZgKDBhkCgioIORATM1c/yP7QEyVJcWjnCox+Nxzz1FjYyNt3LiRjjzySB7wYAUIgAAIMCYAMZWxc2AaCICAngS8hZwyYqpAkhNUS4ipKyZTj4Z2UZBauzqpucqbI8RUb0YooQ8B7xjUZ6wYSboJqCLkpNtLGL3OBFSKwe9+97v0t7/9jdavX089e/bU2S0YGwiAAAhUTABiasUI0QAIgAAI+CPgLeSU2DWZS/BhiaQuYmpRGTnb9BJTZcaMnakylHQt4x2Duo4c40obAZWEnLT5BuNNBwGVYvDPf/4z1dTU0K233kotLS3pcBBGCQIgAAIBCUBMDQgO1UAABEAgKAFvIaeU0JfP8NvU0U1zxzjF1KDZhIn8ialu9rn8LLdD1iJVmBlZ/NSZoTkzLqt8fjxNTUTt7euMX8jstnWzD9mRg85XHet5x6COo8aY0khAJSEnjf7BmPUnoFoMPvDAA/TjH//YTEY1YMAA/R2EEYIACIBAQAIQUwOCQzUQAAH+BHbt2kVbtmxhZ+ioUaNo9erVNHLkyBK2BdmZ+gTRxGpqEXpjUwd15xVJqfGHLqbmdsg6urfd+Zq/17WwTF1rF3WadxO4XXdQLMgWD9DJr1BILSwv054UQhRSiIAQU6dOnWom3OD0fPOb36TTTz+dk0mwRXECqgk5iuOG+SBQREC1GBR38g4dOpT69+9PK1euhEdBAARAAARKEICYiqkBAiCgLYGrr76axDfsHB85MbWE5S53puZ3bmbqFO7w9CYQuphq7UotSJhls8MSW10TalkCZ15MzQus3mPJi7DZdtyuPsjtmoWYKkNUtzJ+kr3EPfb999+fhg0bRvX19TR8+HDzf/v27Ru3GehPEwKqCTmaYMcwQCBHQMUY3Lx5Mx199NH0y1/+0kxKhQcEQAAEQKCYAMRUzAoQAAEtCYhv1r/2ta/RHXfcQZdccgmrMXofMS6TgKpg12lhOSGgnrGkB5m5p8ifSBi6mOq6M9V2RL/oCgC7i8rcCSvlScfOVKsvV3b+OEl1j0LsCXjHYPxDeP311+nYY4+lBQsWmNmU161bR2+88Qb961//okGDBlFdXV3u31FHHUVf+MIX4jcSPSpHQEUhRznIMBgEyhBQNQZ/8pOfmH+P3nnnHTrooIPgYxAAARAAAQcBiKmYEiAAAloSeOWVV2j06NG0e/duOuCAA1iN0VvIkU2OlBdT8ztRg+3mDF1MFcTLCapdk6lHRvV1fdzvhJV1I8RUWVJpLecdg/GTEV8AiR2oc+bMoQkTJpgGfPrpp6agKoRV8e/VV18lkSDE2r1qF1ixezV+n6nQo6pCjgpsYSMIyBBQNQbF3x+RjOrkk0827qwv/XlNhgHKgAAIgICOBCCm6uhVjAkEQICmTZtG27ZtoxUrVrCj4S3k+BVTC5My5ZM6ySRryuAJJqbmrxPI91l6p6d1R6oplFa3UX11C60ru4M2aEItBz+XY/4y9rKbODAoNALeMRhaV74aGj9+PPXu3Zvmz59fsp4QUy1x1W336ogRI8wdrLW1tdi96ou+noVVFXL09AZGlUYCKsfg2rVrzfv9xd8a8bcFDwiAAAiAQJ4AxFTMBhAAAe0IWEf8Z86cSRdffDG78XkLOZWJqcaWUGqrzyajKnVnqYOKPzFVIqFTyWP8eYG3VAIqcrkTtrWrk8ycVFIPElBJYUpxIe8YTAbOvHnz6IYbbiCRPE/2sXavil2rlsiK3auy9PQvp7KQo793MMI0EFA9Bi+88EJav349iXtUe/XqlQaXYYwgAAIgIEUAYqoUJhQCARBQicCaNWvMY0kcj/gLjt5CTqViqtGJ7Yi9TPImf2JqYftiTE0dHUQNDdRu32laJKgW75QtElRdE1LJ77DNzFM3foUCsKu9Kk1y2FoRAe8YrKj5wJX/+te/0iGHHEJvv/02HXnkkYHbce5effPNN80rA6qrqwvuXsXu1cCIlamoupCjDGgYCgIlCKgegx9++CEddthh1NLSQrfccgv8DAIgAAIgkCUAMRVTAQRAQDsCV155Je3YsYM6hMDH8OEo5PgWUxlyhUkgIEuAYwxatos76pqamsyFa1iPSGJlv3tV7GB17l4VRzjr6+vNe1vx6ENAHNEVR3XxgAAIJEegT58+5hf8nB4/fwcff/xxuuyyy8zdqSIhIh4QAAEQAAFjg5RxHLYbIEAABEBAFwLilda/f3+69957adKkSSyH5ecDbFwD8COmCvuTeMw/V65JrezWZHaxtlT7sxF/CpPwaHJ9coxBi8Y111xD7777buT3Pf/P//wP/f73vzeTWll3r2L3anJzMqqem5ubSZzWaGtri6qLQO2OGjWKWltbaciQIYHqoxIIqEJgwYIF5mmD119/nZXJfv8Oii9mxN8I8fcCDwiAAAiAAMRUzAEQAAHNCKxevZpOOeUUtkf8BW6/H2DjcBHEVHyvGMc849IHxxi02Lzwwgt09tln0549e2K9n67c7tVjjz02dz0Adq9ymcVydqh+xFhulCgFAnwJ6BKD27dvJ3FyYvbs2eYuVTwgAAIgkHYC2Jma9hmA8YOAZgSuuOIKev/990kIElwfjkKOHzGVK1fYBQKyBDjGoGX73r17SRwJXblyJY0ePVp2SJGUE7tXOzs7c4mtxFUBzt2r4noAcfdqz549I7EBjVZGQBchpzIKqA0CyRHQKQbvuOMOuuuuu2jbtm3Ur1+/5KCiZxAAARBgQABiKgMnwAQQAIFwCHz++ef0la98he677z666KKLwmk0glY4CjkQUyNwNJpkS4BjDNphieOUQqScNWsWK4b23avW9QA7d+6k/fffn+y7V+vq6rDQZuI5nYQcJkhhBgj4IqBTDH722WdmcsRjjjmGnn76aV8cUBgEQAAEdCMAMVU3j2I8IJBiAr/5zW9ozJgxJDKPHnDAAWxJcBRyIKaynS4wLAICHGPQPkyx++fZZ581k0Zxf8rtXhWCsBBWxT/sXk3GkzoJOckQRK8gUBkB3WJQfJEmrnt58cUX6dRTT60MDmqDAAiAgMIEIKYq7DyYDgIgUEhgypQpZobq5cuXs0bDUciBmMp6ysC4kAlwjEH7EEWiErHTU2R/Fkf+VXrE7tU333wzdzWASFYidq/ut99+NGzYsJy4it2r8XhVNyEnHmroBQTCI6BjDE6dOpWWLVtmJkvs3bt3eLDQEgiAAAgoRABiqkLOgqkgAAKlCVhH/EV24IkTJ7JGxVHIgZjKesrAuJAJcIxB+xC7u7upb9++NGfOHJowYULIo4+/OfvuVbGracOGDebdq1VVVQXiKnavhu8bHYWc8CmhRRCIjoCOMSgSJIr39wUXXED33HNPdPDQMgiAAAgwJgAxlbFzYBoIgIA8gZdffpkaGhrYH/EXI+Io5EBMlZ9rKKk+AY4x6KQ6fvx4c8fP/Pnz1QfuGIHX7lXregBxlBRJTipzv45CTmVEUBsE4iWgaww+99xz1NjYSBs3bjTvUcUDAiAAAmkjADE1bR7HeEFAUwJNTU30wQcf0PPPP89+hByFHIip7KcNDAyRAMcYdA7vscceoxtvvJF27doV4sj5NiV2r4orAax/2L0ajq90FXLCoYNWQCB6AjrH4Omnn25er7V+/Xrq2bNn9DDRAwiAAAgwIgAxlZEzYAoIgEAwAtYR/7a2NrrwwguDNRJjLY5CDsTUGCcAukqcAMcYdEIR94wOHDiQ3n777VTu+nHuXhXXA7z//vvm3aviPlkrsRV2r5YPJ52FnMRfJDAABCQI6ByD4ss+cdx/+vTpdO2110rQQBEQAAEQ0IcAxFR9fImRgEBqCbz00kv0/e9/X4kj/sJJHIUciKmpDZ9UDpxjDLo5oqamhsSu+5aWllT6yTlo5+7VN954g/75z3/m7l61rgf41re+hV1SWXg6CzkIChBQgYDuMTh79my6/vrrzWRUAwYMUMElsBEEQAAEQiEAMTUUjGgEBEAgSQKXX365eRRWZBZV4RFCzkUXXUSHHnooG3PXrFlDf/rTn0y78ICA7gTELpqnn36axL2knJ9rrrmGurq6qKOjg7OZidlm7V4Vu1at6wGwe7XQHboLOYlNPnQMApIEdI9BkTBx6NCh1L9/f1q5cqUkFRSrlID43C7+4QEBEEiOAMTU5NijZxAAgRAIWEf8f/7zn5tZRVV4hJg6ZMgQ6tOnDxtzd+zYQR9//LFpFx4Q0J2AWIA88sgjdNlll7Ee6vLly+mcc84hkTm5V69erG3lYtxf/vIX+v3vf58TV63dq4cddljuagBxRUBadq/qLuRwmXewAwRKEUhDDG7evJmOPvpo+sUvfkHnnnsuJkMMBMS8Eteb4XN7DLDRBQi4EBBrZ2fhzEIAACAASURBVIipmBogAAJKExDfgv/gBz9Q5oi/gM3xiDGO+SsdBjDeJwGOMeg2hL1795pfuoj33OjRo32OEsUFgX//+9/05ptvFiS3cu5eFdcDHHfccdSvXz9loIkvBMQH+UmTJrnaLL4cE18yzpo1yxQ5xO5dTo8qMejKbGsb1VcvpMauTmqucimxYjL1aCDq6J5LYzhBhy2JEEiDmCrA3nDDDeaXlNu2baODDjooEdZp6pTrvEqTDzDWdBMQMQgxNd1zAKMHAeUJXHrppfS3v/2Nli5dqsxYOC4iIaYqM31gaAgEOMZgqWGNHDmShNgnRDE84RCwdq9a1wNs2LDBvHtVpd2rpRbSlogqdiwJQUPsWhI/43YcVKUY9D3rIKb6RqZzBa6iV9gx+Omnn5K45/vkk0+m9vZ2nV3KYmxc5xULODACBGIgADE1BsjoAgRAIDoC1hH/+++/n84///zoOgq55bA/wIZhHsTUMCiiDVUIcIzBUuzuuOMOevbZZ0kcV8cTDYFyu1fFXYDiWgDr35e//OVojPDZqnMh7RRRxe/FrlWuC26VYtCna4ggpvpGpnOFNMXg2rVrSXwBKO6wFl8C4omOANd5Fd2I0TII8CIAMZWXP2ANCICATwIvvvginXbaaUod8RdD5LiIhJjqc/KhuNIEOMZgKaCvv/46HXvssbR7925W9ywrPQEkjBe7Vzs7O3PXA7jtXhVigThC37NnT4kWwy1iLaSXLFliHue3dqJaIqrVG9cFt3QMuh2pd/7M/O8WWmdD3NTRTXNzZ+y3Ult9NbXkCjTlj+CbdbdQY+smajEL2H5XymVFNq2gyca5/sxevDpqba012sIx/3BnvLqtKR+DPtFPnDiRXnvtNRL3qOKub5/wfBTnOq98DAFFQUBpAhBTlXYfjAcBELjkkkvoo48+IrGYVOmRXkTGOCiIqTHCRleJE+AYg6WgiEzJffv2pTlz5tCECRMSZ5dmA9avX28KrNb1AOLu1S996Us0bNiw3M7VuO4KXLBgAS1atMh0x3777WfuQv3e975X5B5R7r333qNXXnmFleukY9BLTCWX+0uz4mqtKahmhdTaDurOqqtb2+qpemEjdXU2U5UlxDblf+8JqsCmjJC6qbWLOs0LVC1hVUKU9ewIBXQgwFX0ko5Bn0748MMPzStTWoxvFG655RaftVFclgDXeSVrP8qBgOoEIKaq7kHYDwIpJiCO+B988MH08MMP03nnnacUiag+wFYCAWJqJfRQVzUCHGOwHEORHXnfffel+fPnq4Zaa3vtu1eFyCr+cXyGDx+ubgIqKTF1C91cKtmT65H7jOBpbE+ludWZXa0Z4VXSe3abuoqTTZlibUstElBJ4tS9GFfRK8q/g48//jhddtll5u7UQYMG6e7iRMbHdV4lAgOdgkACBCCmJgAdXYIACIRDYMWKFXT66acrd8RfjD7KD7BB6UJMDUoO9VQkwDEGy3F87LHH6MYbb6Rdu3apiBs2R0BAvLPFrtNDDz2UxD2FYmeq2AUm/tv+cF1wS8egl5hqbAZdMbkHNVj5bhw7TDPCpv0CgDydOrGbdOxyQ0xdSI1dnWRuLJV5bDaNXW7b5WrVzV4dUFLglekDZbQhoHwMBvSEuDtVJKUS96fiCZ8A13kV/kjRIgjwJAAxladfYBUIgIAEgYsvvtjMULx48WKJ0ryKSC8iYzQbYmqMsNFV4gQ4xmA5KDt37qSBAwfS22+/TUceeWTi/GBA8gTsC+k1a9aYiabcRFWuC27pGJQQU/PesN9dmjlmX20/0u/mNrf2vdwLMdWLEH5vI6B8DAb05vbt26mmpoZmz55t7lLFEy4BrvMq3FGiNRDgSwBiKl/fwDIQAIEyBETm5X79+tHcuXOVvENQehEZ4yyAmBojbHSVOAGOMegFRSxKJ0+eTM3NzV5F8fsUEHBbSLuJqmL3qvi5+MfpkY5BX2KqNULbMX4Sx/A3UWupnacViqnNLsf8ja2yRp9IQMVpviVpC1fRSzoGK4B3xx130F133UXbtm0zP7fjCY8A13kV3gjREgjwJgAxlbd/YB0IgEAJAi+88AKdeeaZ9Pe//5169+6tHKc4PsD6hQIx1S8xlFeZAMcY9OJ59dVX09atW6mjo8OrKH6fAgLlFtJ2UXXIkCG0zz77qHtnajahUz7BUzah1Lq6jEDqJmYWCKTZ8tSaSTgl5oYpdmYFVrcEVl7zxyUBVXvuegEkoPLCl7bfcxW94vg7+Nlnn5F4Bx111FH0q1/9Km2uj3S8XOdVpING4yDAiADEVEbOgCkgAALyBC666CL65JNP6LnnnpOvxKhkHB9g/Q4XYqpfYiivMgGOMejFc/ny5XTOOefQnj17qFevXl7F8XvNCQjBdMeOHeZdqaUeUWbKlCnUv39/+t3vfseKiK8YNMXLFrJuXmwSXyg0zKAaa7epKY5al6aKYWaF1twdqJYAayGw/b7SnakZddZMaJWxwGi7tdbIZI6dqawmXILGcBW9fMVgBfzeeOMNGjp0KL344ot06qmnVtASqtoJcJ1X8BIIpIUAxNS0eBrjBAGNCKh+xF+4Iq4PsH7cDjHVDy2UVZ0Axxj0Yrp3717q06cPrVy5kkaPHu1VHL8HAZMA1wW3ijGIKQUCQQggBommTp1Ky5Yto3fffVfJE2VB/B51Ha7zKupxo30Q4EIAYioXT8AOEAABaQJid9ZZZ52l7BF/iKnSrvZXMMjuolI9hNmWv1GgdEwEVBVyRHbkESNG0KxZs2IihW5UJ8B1wa1qDKo+H2B//AQQg2SeqKiqqqLzzz+f7r333vidoGGPXOeVhqgxJBBwJQAxFRMDBEBAOQITJ04ksUNr0aJFytluGcxxEan8zlQIoMrGQxKGc4xBGQ4imcezzz5L4tgkHhCQIcB1wc02Bh1XChQzdl4hIOMFlEkzAcRgxvuLFy+mcePG0caNG+nII49M85QIZexc51Uog0MjoRNYMbkHLTmjm+aOCb3p1DYIMTW1rsfAQUBNAtYR//b2dho/fryagzCs5riIhJiq7HSC4QEIcIxBmWH84Q9/oGHDhtHu3bvNI/94QMCLANcFt6ox6MUbvwcBJwHEYJ7I6aefTn/+859p/fr11LNnT0yWCghwnVcVDAlVIyGQvzO8qQNiapiIIaaGSRNtgQAIRE5A3LckRNQPP/xQ6TuXOC4ifYmpbrtAnT9z2d1T+EfcmRCkiTq655L5halZdws1tm4ykniIlCO235WaZUU2OdrPZVq2GnAkDOlopIUNW+hmYYO9LSvTs/l7ewIUfCCJPOAj7IBjDMoMt7u7m/r27Utz5syhCRMmyFRBmZQT4LrgVjUGUz6dMPwABBCDeWi7du0yj/tPnz6drr322gA0UcUiwHVeqesha11grDlEjsNcUkPHGqRkwkNr3ZE/vbC1rZ6qxTpGrEHOWJJJlFjXSq21LdRiZizMtF1tlRM/cQieuTayYAt/b7O5q4Zm5BI1WjY411pGI0b/XZ3NlMvPqK7DErccYmriLoABIAACfghceOGF9I9//MM85qryw3ERGaqYagmQVqZl4aysuFprfkjI/nGvNT5cZM+bmB8WFjZm/sBbQmyRAFrG6wViqrN9539nPnxsau2izmbxccL2YcRVTDVEVNuHj8wHm9q8+KvyZEyp7RxjUNYV5557Lu277740f/582Sool2ICXBfcKsdgiqcThh6AAGKwENrs2bPp+uuvN5NRDRgwIABRVBEEuM4rdb1j32ThGIW1Bih5DUyhKFqXXV9YQqgpgNLkjJjq9djWG+JovlsVq/38+sWlUbOdsbS8vprMfSnWAzHVywPSv4eYKo0KBUEABJImYB3xf+SRR0iICSo/HBeR4Yup2V2ebo4yv9UlhxiZ+RBj/JDmVoudqS2UEV4lPW0XU7tc2rf36dJ/gUBatDPVYQvuZ5V0Ct9iHGNQltZjjz1GN954I4kdPnhAwIsA1wW3yjHoxRy/BwE7AcRg4XwQJyyGDh1K/fv3p5UrV2KyBCTAdV4FHA6Dankx1U2sdD8ib9XJ7gQ1N5PkN2B0mWJodmdrbker878dda3TeJZwWyB+OjZ/5DaDiA2n2Q0izn4Ix/yjmlwQU6Mii3ZBAARCJ7B06VLzWKvqR/wFGI6LyFDFVGOzZ8G3qY4dps4jK/bJYn4YGLvc+DCykBrtO1u9ZpRTTJ1RU3iMxfb7scttu2CtdrNXC5Q85l+0y9anfV724/exEuAYg7IAdu7cSQMHDqS3334bSTxkoaW4HNcFt8oxmOLphKEHIIAYLIa2efNmOvroo+kXv/iF8hskAkyJUKpwnVehDC6RRpxCZcYIaz2TF1jNn5obQPL7TJ3H6sV/P0E00dgVStlj9ZbIWbTL1bpGwNF/0XUCBaslo/1Oaq5yiLnm2X3nOCCmRjWdIKZGRRbtggAIhE7g/PPPp3/961/061//OvS2426Q4yIybDE1z9T+gcN2DMY60u8GP8jOT4ipcU9jpfvjGIN+gB5xxBE0ZcoUam5u9lMNZVNIgOuCW/UYTOFUwpADEkAMuoO74YYbSJw227ZtGx100EEB6aa3Gtd5pa5HJMRUc7NHPn9Cfqz5e1WtDSN1ra1U29KSv1KslJia23nqR0y17lZ1sxlialxzEGJqXKTRDwiAQEUExBF/8UFrwYIF1NjYWFFbHCpzXERGJ6ZaxG3H+M17gzZlv1V18UgYYqqzfY9j/sZXz/mrB9wSUGFnKofQCc0GjjHoZ3BXX301bd261UiSYGRJwAMCZQhwXXCrHoOYdCAgSwAx6E7q008/pZqaGvrOd75jiqp4/BHgOq/8jYJTae9j/te9k0koldulmrtD1ZlEVxz1r6O6devyV5b5FVPd2i7CJSOm5nfXul9VwMkHatkCMVUtf8FaEEgtgSVLltB5552nxRF/4USOi0hfYmr2CEk+gZMjg6XbnaVuCaKsoy8CivkhIyuwuiWw8pr9kSagchzpDyL2etmP38dKgGMM+gGwfPlyOuecc2jPnj3Uq1cvP1VRNmUEuC64VY/BlE0jDLcCAojB0vDWrl1LI0eOpHWG6DRixIgKKKevKtd5pa4nvBNQkZmA1p7NyRqtdcxf/Hf+WL2xfzSfH8KvmGoujdwTUBlqbvYqM39iqmktElCFNkUhpoaGEg2BAAhESUAIqZ999hktXLgwym5ia5vjItKfmCo+K2QvWc9SaxI75BpmUI21g7Porh/7Bw3nhw3zr3t+p2oQsbKojv3DjNG8497WwvuOjL5ba8k4jZP50IOdqbHFQlIdcYxBPyz27t1Lffr0MZN3jB492k9VlE0ZAa4LbtVjMGXTCMOtgABisDy8iRMn0muvvUbiHlV8OSg/0bjOK/kRcCtpEybFkqbBuhHVJog6BE6xQ/UJmmgKrPZdn7ncEHbhMoCYKggVCaplE1KZNbL3uboIuSbywvFw84JK9kBMVclbsBUEUkrAOuL/+OOP07hx47SgwHER6VtM1cITtkGIDznOpFW6jRHjyRHgGIN+3XPSSSdRnXGMbNasWX6ronyKCHBdcOsQgymaRhhqBQQQg+XhicSyhx9+OE2bNo0EKzxyBLjOKznrOZZyvzM1kKVZ4bQwaVWgllCJMQGIqYydA9NAAAQyBJ577jm64IILtDniL8bEcRGZKjHVfqWAmfkyu4u1toO6545B6KWAAMcY9Iv99ttvN9+PGzZs8FsV5VNEgOuCW4cYTNE0wlArIIAY9Ib3xBNP0KWXXmruTh00aJB3BZQwhec1a9aY//CEQSAsMTV/Mg53lIbhF75tQEzl6xtYBgIgkCUwfvx46u7upmeeeUYbJhwXkazFVMeVAsUTwXmFgPdUyR3BsYoWXQPg3QZKqEuAYwz6pfmHP/yBhg0bRrt37zaP/OMBATcCXBfcOsQgZhwIyBBADMpQIvPuVJGUStyfisebANd55W051xKVi6n2tQV2pXL1c3h2QUwNjyVaAgEQiIDAP/7xD+rXrx+Jb6xFshVdHo6LSNZiqi6OxzjYEOAYg37hiC+Z+vbtS3PmzKEJEyb4rY7yKSHAdcGtQwymZAphmBUSQAzKAdy+fTvV1NTQAw88QJdffrlcpRSX4jqvUuwSDD1lBCCmpszhGC4IqEZg0aJFdOGFF2p1xF/4gOMiEmKqatEBeyshwDEGg4zn3HPPpX333Zfmz58fpDrqpIAA1wW3LjGYgimEIVZIADEoD3DmzJl055130rZt28zNFHhKE+A6r+AzEEgLAYipafE0xgkCihIQQoF4dDriDzFV0ckIs7UioIuQ8+ijj9JNN91Eu3bt0so/GEx4BLguuHWJwfA8hZZ0JYAYlPfsZ599RkOGDKGjjjqKfvWrX8lXTGFJrvMqha7AkFNKAGJqSh2PYYOACgSsI/5PPvkknX322SqYLG0jx0UkdqZKuw8FNSDAMQaDYN25cycNHDjQTNoxePDgIE2gjuYEuC64dYlBzacPhhcCAcSgP4hvvPEGDR06lF588UU69dRT/VVOUWmu8ypFLsBQU04AYmrKJwCGDwKcCTz77LM0ceJE7Y74C+YcF5EQUzlHA2wLmwDHGAw6xiOOOIKmTJlCzc3NQZtAPY0JcF1w6xSDGk8fDC0EAohB/xCnTZtGS5cupXfffZd69+7tv4EU1OA6r1KAHkMEAZMAxFRMBBAAAbYEGhsb6Qtf+IKWx3w4LiIhprINBRgWAQGOMRh0mFdffTVt3bqVOjo6gjaBehoT4Lrg1ikGNZ4+GFoIBBCD/iHu2bOHqqqq6Pzzz6d7773XfwMpqMF1XqUAPYYIAhBTMQdAAAT4ErCO+D/11FN01lln8TU0oGUcF5EQUwM6E9WUJMAxBoOCXL58OZ1zzjkkFp+9evUK2gzqaUqA64JbpxjUdOpgWCERQAwGA7l48WIaN24crV+/no455phgjWhci+u80hg5hgYCBQSwMxUTAgRAgCWBhQsX0qRJk+jvf/87ffGLX2RpYyVGcVxEQkytxKOoqxoBjjEYlOHevXupT58+tHLlSho9enTQZlBPUwJcF9w6xaCmUwfDCokAYjA4yNNPP522bdtGGzdupJ49ewZvSMOaXOeVhqgxJBBwJQAxFRMDBECAJQGxy0qIqE8//TRL+yo1iuMiEmJqpV5FfZUIcIzBSviddNJJVFdXR7NmzaqkGdTVkADXBbduMajh1MGQQiKAGAwOcteuXeZxf8Hwhz/8YfCGNKzJdV5piBpDAgGIqZgDIAACahCwjvj/4he/oDPPPFMNo31ayXERCTHVpxNRXGkCHGOwEqC33347Pffcc7Rhw4ZKmkFdDQlwXXDrFoMaTh0MKSQCiMHKQD744IN03XXXmcmoBgwYUFljGtXmOq80QoyhgEBZAubOVKNENziBAAgkS2D16tU0cuTIZI1g0vszzzxDF198sbZH/AVmjotIiKlMAgBmxEKAYwxWMvA//OEPNGzYMNq9e7d55B8PCFgEuC64dYtBzDgQKEUAMVjZ3Oju7qahQ4dS//79zets8GQI3HPPPeaOXXHVDx4QAIFkCJhiamtrKw0ZMiQZC9ArCKScwKhRowhian4SnH322bTPPvvQL3/5S21nBsdFJMRUbacbBuZCgGMMVuIosdjs27cvzZkzhyZMmFBJU6irGQEIORE4dGsb1VcvpMauTmqucmnf/nuylbX/f7d69qa8+lgxmXo0EHV0z6UxEQwRTYZHADFYOcvNmzebWsWTTz5J48ePr7xBDVoQ82rZsmV03333sRqNWNdCW2LlEhgTEYEFCxZkdqZCyImIMJoFAQkCui3qJYZcsog44n/QQQeRSEB1xhlnVNIU67ocfQ4xlfWUgXEhE+AYg5UOsbGxkfbbbz+aP39+pU2hvkYEIORE4EwvobOUKOpHTPUyG2KqFyE2v0cMhuOKG2+8kdrb282EVGKtkPYH8yrtMwDjT5pA7pg/xNSkXYH+00xAx0V9UH+KhFOXXnqp1kf8BRuOPoeYGnTWop6KBDjGYKUcH330UbrppptIJOzAAwIWASy4I5gLEFMjgKpvk4jBcHz76aefUk1NDX3nO9+hRx55JJxGFW4F80ph58F0LQhATNXCjRiE6gR0XNQH9clZZ51FvXv3JpF8SueHo88hpuo84zA2JwGOMVipl3bu3EkDBw4kcRxy8ODBlTaH+poQUH7B7SZcOn9m/ncLrbP5rKmjm+bmzr9vpbb6amrJFWjKH483626hxtZN1GIWsP2u1Byw+m+tNeq0Z0rVtVJXZzOZp/cjOea/giYb5/ozvdUZx2hF3zjmr0KYKh+DjCCvXbvWzDGxbt06GjFiBCPL4jcF8yp+5ugRBOwEIKZiPoAAAwI6LuqDYLWO+P/617+m008/PUgTytTh6HOIqcpMHxgaAgGOMRjCsOiII46gKVOmUHNzcxjNoQ0NCCi/4PYSU92OzmfF1VpTUM0KqbUd1J1VV7e21VP1wsaM+GkJsU3533u63aqTE1AdfYQupmaE1E2tXdRpXtJqCasSwq/nYFAgagLKx2DUgHy2f9FFF9Grr75qfnHYq1cvn7X1KY55pY8vMRI1CUBMVdNvsFozArou6v26SSScEiLAhx9+SF/84hf9VleqPEefQ0xVagrB2AoJcIzBCodkVr/qqqvM++Q6OjrCaA5taEBA+QW3lJi6hW4ulYjJ9W7RjBhpbE+ludWZXa0Z4VXS4QVibbaOjIDq585Ue3tdxcmmTEG4pRYJqCRdlmQx5WMwSXgufYt1wuGHH07Tpk0zs9mn9cG8SqvnMW4uBCCmcvEE7Eg1AV0X9X6dKhJO7b///vTUU0/5rapceY4+h5iq3DSCwRUQ4BiDFQwnV/X555+ncePG0Z49e1K9YycMlrq0ofyC20tMNTZqrpjcgxqyp+3JscM0IzraLwDIe7ZO7PQcu9wQUxdSY1cnmZs+ZZ7s1QCFAq5ToM22aRdQA4qpY5fbdtJa9rnaIGM8ysRNQPkYjBuYRH9PPPGEmWNB7E4dNGiQRA39imBe6edTjEgtAhBT1fIXrNWUgK6Lej/u+uSTT6hfv3707LPP0mmnneanqpJlOfocYqqSUwlGByTAMQYDDqWg2t69e6lPnz60cuVKGj16dBhNog3FCSi/4JYQU/Must8rmjkCX20/0u/mSz/JpMoKmRBTFQ+VyMxXPgYjI1NZw+LuVJGUStyfmsYH8yqNXseYORGAmMrJG7AltQR0XdT7cahIOHXFFVek4oi/4MLR5xBT/cxYlFWdAMcYDIvpSSedRPX19TRz5sywmkQ7ChNQfsHtS0y1HGUTNkkckd9EraV2ngYWUx27WWM+5m9sxzXGhQRUKoSm8jHIFPL27duppqaGHnjgAbr88suZWhmdWZhX0bFFyyAgQwBiqgwllAGBiAnovKiXRScSTh144IH05JNPylZRuhxHn0NMVXpKwXifBDjGoM8hlCx+++2303PPPUcbNmwIq0m0ozAB9RfczuRL2WRP64yM9kIgdblPlAoE0mx5as0knBK+NIXIrMDq5+i9NQ8SSkDVnrvCAAmoVApJ9WOQL23xpeGdd95J77zzDh1yyCF8DY3AMsyrCKCiSRDwQQBiqg9YKAoCURHQeVEvw8w64r9o0SL6wQ9+IFNF+TIcfQ4xVflphQH4IMAxBn2YX7bo+vXrafjw4bR7927zyD+edBPQYsFtiZdZVzaJBGsNM6jG2m1qiqPWpamiUFZozd2Bagmw1lyw/b6SnamttdTSku3XflerzC5Vr/tZi+yyX2Fg2G/2jZ2pKkS3FjHIFPRnn31GQ4YMoSOPPJKeeeYZplZGYxbmVTRc0SoIyBKAmCpLCuVAIEICOi/qZbCJ3ahTp05NzRF/wYSjzyGmysxWlNGFAMcYDIttd3c39e3bl+bMmUMTJkwIq1m0oygBLLgVdRzM1oYAYjBaV77xxhs0dOhQevHFF+nUU0+NtjNGrWNeMXIGTEklAYipqXQ7Bs2NgM6LehnWYjfqwQcfTCIzZ1oejj6HmJqW2Ydxcv1CI0zPNDY20n777Ufz588Ps1m0pSABLLgVdBpM1ooAYjB6d1511VW0ZMkSevfdd6l3797Rd8igB8wrBk6ACakmADFVG/fj7iSVXclRWIuLp3XEX9zvN3bs2Li6Tbwfjj6HmJr4tPBvABKQ+GeWrcExBgMPxqXio48+SjfddBPt2rUrzGbRloIEsOD26TTHlQLFtZ1XCPhsXxSPo48AZqFKNAQQg9Fwtbe6Z88eqqqqovPOO4/uu+++6DuMsIc1a9bQjh07aNKkSble3H4mN6/s14M4jK6z3SNNVrni99uKyT0oc4uK3LtP989X0bheRsuRKRONdWjVnQDEVG1mBoJLZVem+Y+O2I06bdq0VB3xF3OVo88hpir4FoGYGthpHGMw8GBcKu7cuZMGDhxImzdvpsGDB4fZNNpSjIDcgjv+Qekeg/ETRY9cCSAG4/HMsmXL6KyzziJxb/gxxxwTT6cR9OI2X2R/VmxOGTHV1EctQbWEmJq7j1pOSOW6xonATZ5NChF6yRndNHeMZ1GjgIyWI1NGpi+UCYsAxNSwSKIdEKiAQJoXFGI3ar9+/ejxxx+vgKB6VTn6HGKqevMok5EaCUiCeI5jDAYZR7k6hx9+OF1xxRXU3NwcdtNoTyECEHIUchZM1ZIAYjA+twoxVRz137hxI/Xs2TO+jkPsSVY4lZtXJQS43O54SyR1EVOLysgNMg2fr8qTyCc8bOqQFVNl2EJMlaEUZxmIqbHRzr+gmpqI2tvXGT3nv+HZ2lZP1S3iZ5nHHni5rfX2LKFGmcKfE002VtTt1EQd3XPJ+gKkdLtWkOfLW2XrWruos1mkGM3aXHAEIDZgqeoorX90rCP+ixcvpu9///vwecIEfImpbtmPnT9zOcZY+KHCmV3Z9v4y626hxtZNRrZi8W4sfLe5/y4fPgAAIABJREFUorL6t2dXdr6/XGzKv/OMVr1sLvn7zFgWNlrvT/MlbWaXLnqfUwd1m19TO8ZflAnabfzI5hxWmKThvSvukNu2bRt1iMzneFJLQG7BHT+eNMRg/FTRI0cCiMH4vCKuthHH/QXzH/7wh/F1HGJPsYipts+gmc+pTjG19LF/r6HKv9tt4qDxMaUhc5dA8Wf+3O5Yq2dLQ7E+R7toKuIz9RlLzM/hYvdta20LtZjNZ9YT1TbtxSl4ltNlCnaQdtXQjOoWyig4TptslKS0FDehtHCd0CQ+yzUU6z1e/sDvoyMAMTU6to6W3bbYZ4LZUEGz95AUVskt8K0XSNl7TYoDMH+/iXu71ovCeoHkylv9WKKBQ8SNDVmKOpL/o6MXlAULFtDVV1+duiP+woscfR6qmEpCDF1IjV2dZH43I57sO6XW/NCW/YBQawmL4tfGl0oLG6mrs5mqgrx/ckKnJbw6+8i8J40Xb+7ITeY9WJv5EqqkQNxCps3V5cd03Ts2+43hinfqjE11RI1PZL+gytiz5Wa38TtsdR1/xv5Nzi+8ZIRmvV4doYyGYwyGMjBbI88//zyNGzeOxF1yvXr1Crt5tKcIAQg5ijgKZmpLADEYr2sffPBBuu6668wdqgMGDAil87feeos+/vjjUNryakSsj0R/bW1tuaKlfvbee+/RK6+8UqbJIDtTjYTAE6sps5ch/zndy27r9/KfryTucy15v3ShKGrpJgX6BmU2NXg+No3FSz/Ji6kurZrtjKXlxmd92x4521UK5Sxx+sm54cReV2KDieegUSAMAhBTw6Ao1Ub+ZeG6C8pVKHUIAutsd5UUCayOALRePOXazZYhc2FOmUV+bZOxazZzZNT6xibc7elSsFJXSP6Pjl5oxG7UL3/5yyQ+IKTt4ejz8MXULXSzbad8gY9dj6fbxE5TuMyKmFJ3DRmtF4i12d7sAqnxLfxWY7eCpe2aJQp+n9kNW9Lm7G5Zud+LD0ETDSG1lloW1tgE4mz7buO3/8xtLC51CsTgtAVRhePlGIMVDqmo+t69e6lPnz60atUqGjVqVNjNoz1FCEDIUcRRMFNbAojBeF3b3d1NQ4cOpf79+9PKlSsr7lz4b/r06RW3E0UDw4cPp1dffbVM0/7vTM2fos0061cLkP985aaP5H/m3q9jx6y5ecPYHZrVPLrMTWpZDSW3o9X531lNxaprbUqQ0U9yd5sKjTR7Gs3ZT9GuXxnPl9By7Em/ivqRaRdloiQAMTVKuoXKQfYYvuPy5qJt6/ZKxVvWraC1vjXJv2QcASjVbraO+Mbpuncyu8g6GmlhQ2Y32eF3215GsXFKZ0fyf3T04SOO+B988MG0dOnS1B3xF17k6PNQxVRDsSz4dtfxzbbzCE3Bm098OBm7vHhnq9f0d9tZmv3QY9+Nah2/zzeXf9eWs1mUL/97285TIQYbWuoTnYfT3T2W0BnWF1TWzlvxjp6RFVktQ4qE3cKdvQU7dwvqlBGAvZil+PccYzAKd5x44ol03HHH0cyZM6NoHm0qQABCjgJOgolaE0AMxu9ekXxxyJAh9OSTT9L48eMDGfDPf/7TrLtu3Tpavnw5HXvssYHa8VspmmP+LlYUfDYvFF2FxnDGEuv0rL+dkPKfr9x3zVqftQs2oNlEzMxI3I76Z3fUUjaplnPzWdEJtgr0E7vIWZQ8KsidqSVscfWRP3/4nX8oL08AYqo8qwpLlrh3pKzoaf8myH5/qVicO+/L8PMyyLebeVkZAZm5gsPQG86gJeYx2C6qmWFsUbcdwa0QAKqXISD/R0cfjPPnz6drrrkmlUf8hRc5+jxsMTU/W+0f0GzHcixh0W1auwqjHvPfU0x1eQ+X7KfY5sINsu6/N9+p4k5UcU/TkjOMu1Grs0f7M+/U3J2qEFMTf5lxjMEooNx2220k7qXesGFDFM2jTQUIQMhRwEkwUWsCiMFk3HvjjTcaJy7bzbvDDzroIF9G/PWvf6Xvfe979O9//9vc3fof//EfvupXUjgaMdVLgHPbEVriZK3H4OQ/X0mIqebmCuteUnvHbnlfWqm2pSV/HVYpMTV3cjeIfuJmc+kj+vK7eiGmVhIzSdWFmBob+RJiatE3JKUNygifxrcw2eQq7t/WZF8ssu2aL5lNZG7n35S5q1Bsj59hbHcX5/0zdxvGBim1Hcn/0dEH0ZgxY+irX/0qCVE1jQ9Hn0cnploeth3jN+8x2mTcMmK7U9U+EQKLqY6rAexH890EzOw7sKQdbjtbCyasbUziXZntQ1x0v+WMzPvT3FG6pZaa2jdRjTVet36Ljvk77pz1uhogjYFUwZg5xmAFwylZdf369SSOAe7evds88o8nfQQg5KTP5xgxLwKIwWT88emnn1JNTQ2NHj2aHn30UWkj3nzzTRo7dqy5s/XXv/417bvvvtJ1wyiYrJhaeIo2f5LMcbq2zEDlP195H/M38xEYF5DmdA83jSN3PL+O6oxdxDn9wq+YKqWfyIip+ZNsgcXUnC1uCcu9hPEwZiHakCEAMVWGUihlSoip5trbPQGVyDxnJmKx+i+4gNn5QisObLl2bburstvIg7w0Q0GU4kbk/+joAck64r9s2TJjR7SxEzqFD0ef+xJTsyJjPhmSI6NmlxBLM/cv576PKRBIs+WtozhiDtgFRrcEVl7zxCsBlVPAdH5Q8bLZ6/fmy9rlXe+aRNCZHMstAZVDTLXazh35cf9G3wsTfp8hwDEGo/CNuDuub9++NGfOHJowYUIUXaBN5gQg5DB3EMzTngBiMDkXr127lkaOHGke1R8xYoSnIeL6MXG0v8XY4Xj77bebnxXifjiJqcaWAPOElZlQSSorvZ/PV4VXCxRwzvZldG6KqcWPXQuxJ2uyCY1+xVRzKeKly/gTU027pbiV3t1aPHaIqXHHZKn+IKbG5onSYqq5/HYGbomgy5UryqxXfpt8bphF7brc6eG68I8NVCo7Ssui3nLuvHnzqLm52dwp1bNnT/icCQF/YqphtCPDZpN5X8gMx+5LexZN55dAzkyVtt8H3plqCJDZ3fsmVse7svBdK/q7mbZUm6pvZhd+0dUrXvdcF39Tb/axyf5lWOb9nBeeLYc7xm+3Ver6AeukgkO0ZjKfuJuRpvduY2Mj7bfffqk9CcB9LkZtH4ScqAmjfRAoTwAxmOwMueiii8wkTX/84x9pn332KWnMjBkzTAFV3LM6bty4xIxes2YN7dixgyZNmpSzwe1ncvNK9ov3MlqF7fN+4clYd0Tyn69stplXDlprhkKx0P7ZXfT/BE00BVb7rs/cZjC71hFATPXWZeTE1ML1hIz46dZu4Tohs85yXvWY2DRFxwYBiKmYBiDAgID8Hx0GxoZggriDSNw9JETVtD4cfe5bTOXmvCACLLcxwJ7YCHCMwagG/8gjj9BPf/pT2rVrV1RdoF3GBOQW3PEPIE0xGD9d9MiJAGIwWW98+OGHdPjhh9PUqVNp+vTpRcaIRFMTJ06k3/72t7RixYrYEk1VSkX9eSUr9EqQygqnMmKvRGsoAgJSBCCmSmFCIRCIlkCaFhQfffQRfeUrX6Hnn3+exL2paX04+hxialpnYzrHzTEGo/LEzp07aeDAgSSyGw8ePDiqbtAuUwLqL7iZgoVZICBJADEoCSrCYmK36SWXXGL+HRw0aFCuJ3uiqQ5j59/Xv/71CK0It2n151WxmOrnWgVxjVHmKT5p66edcL1S2Jppo+MkX3F/+VNufuzOjz/KEaDtcgQgpmJ+gAADAmla1IsL4K+99tpUH/EXU46jz1mLqTIfRF5upIUnO+8ZZRDgMIElAY4xGCUosSvniiuuMK9YwZMuAuovuNPlL4xWPwKIQR4+FXeniqRU4v5U8bz99tv03e9+N7FEU5VSUX9eVS6m5nO9iKtJu6izOZNtxo8oWakfytWHmBol3eTbhpiavA9gAQiwFNaicov40DJgwAB67LHHoupCiXY5CjmsxVQlvAojVSLAMQaj5HfVVVfRtm3bSOy8wZMuAuovuNPlL4xWPwKIQR4+3b59O9XU1ND9999PhxxyCJ133nkk/jbOnDmTjfjmhxTmlR9aKAsC4ROAmBo+U7QIAr4JpGVRbx3xX758OYl7U9P8cPQ5xNQ0z8j0jZ1jDEbpBXG1ikiosWfPHurVq1eUXaFtZgSw4GbmEJiTOgKIQT4unzVrlnlvqtgxKDZ2nH/++XyM82kJ5pVPYCgOAiETgJgaMlA0BwJBCKRlUS+SoPzkJz8hcT9Rz549g6DSpg5Hn0NM1WZ6YSASBDjGoITZgYvs3buX+vTpQ6tWraJRo0YFbgcV1SOABbd6PoPFehFADPLw57/+9S9TPF28eLH5d/Cll17iYVhAKzCvAoJDNRAIiQDE1JBAohkQqIRAWhb1p5xyCn3jG98gcW9q2h+OPoeYmvZZma7xc4zBqD1w4okn0nHHHWceacSTHgJYcKfH1xgpTwKIweT9IjZyjB07lj755BO677776Pvf/z69+OKLdOqppyZvXEALMK8CgkM1EAiJAMTUkECiGRCohEAaFvXWEf8XXnjBvOw97Q9Hn0NMTfusTNf4OcZg1B647bbbzB05GzZsiLortM+IABbcjJwBU1JJADGYrNvtiaaeeeYZ2n///c27UpcsWULvvvsu9e7dO1kDA/aOeRUQHKqBQEgEIKaGBBLNgEAlBNKwqG9vb6cbbrgBR/yzE4WjzyGmVhLFqKsaAY4xGDXD9evX0/Dhw2n37t3mkX886SCABXc6/IxR8iWAGEzONyLporgv/Morr6S77rorl2hK3B9eVVVlJqESO1VVfDCvVPQabNaJAMRUnbyJsShLIA2L+pNPPpm++c1vkrg3FQ+ZH+ZWr15NI0eOZIMDYiobV8CQGAhwjMGohy0SbvTt25fmzJlDEyZMiLo7tM+EABbcTBwBM1JLADGYjOvFlTa33HILzZ8/3zXR1LJly+iss84i8UXjMccck4yRFfSKeVUBPFQFgRAIQEwNASKaAIFKCei+qLeO+Itvh1W+m6hSP9vrc/Q5xNQwPYy2uBPgGINxMBM7dA444ACaN29eHN2hDwYEsOBm4ASYkGoCiMF43S8STV1wwQX029/+loRgWl9fX9IAIaaKo/4bN25ULjku5lW88wq9gYCTAMRUzAkQYEBA90X9ww8/TDfddBOO+NvmGkefQ0xl8DKACbER4BiDcQxenA746U9/Srt27YqjO/TBgAAW3AycABNSTQAxGJ/7P/zwQxozZoyZaGrVqlX09a9/vWzn4m+hOO4vdrD+6Ec/is/QEHrCvAoBIpoAgQoI5MTUiy66iA499NAKmkJVEACBoASmT5/O7sh30LG41Rs9ejQddthhOOIPMTXMaYW2QKAiAmkVU3fu3EkDBw6kzZs30+DBgytiiMpqEMCCWw0/wUp9CSAG4/GtSDTV0NBAhx9+uJlsUSSaknnE1TdCSBU7VAcMGCBThUWZSZMm0Zo1a0j8L6dHrGuhLXHyCGyJioCIvx7GPYbdIhHBQQcdFFU/vtv9y1/+QtbF0L4rowIIKEbgv//7v2nhwoV0wgknKGa5t7niiH///v1p5cqVdMopp3hXSEkJjkIOdqamZPJhmCYBjjEYl2vEQvOKK66g5ubmuLpEPwkSgJCTIHx0DQIGAcRg9NPASjQ1ZcoUuvvuu+kLX/iCdKfiPvGhQ4fm1ivSFRMueMYZZ9DatWtpyJAhCVtS2L0QmIRNSHTJyi0wJgICO3bsoB5Gu91IhBIBXTQJApIEdF7UP/TQQ+aR0r/+9a/K3UUk6b5AxTj6HGJqIFeikqIEOMZgXCinTZtG7733HonFJx79CUDIyfp4xWTq0UDU0T2XxujvdoyQEQHEYLTOuPPOO+lnP/uZeRf4+eefH6gzcVpDCIBPPPGEMgkaMa8CuRqVQCA0AmzvTMWiPjQfoyEFCOi8qB81ahRVV1dTe3u7Ap6Iz0SOPsd7Nz7/o6fkCXCMwbioiIQcjY2N5gmgXr16xdUt+kmIABbcEFMTmnroNksAMRjNVBCJpi655BLzi8Hly5eXTTQlY4HI7zB37lzatm0bqxO7pWzHvJLxKsqAQHQEIKZGxxYtg4A0AV0X9eJS96997WvmBfAnn3yyNI80FOToc4ipaZh5GKNFgGMMxuWdvXv3msfvxLtZfOGFR28CWHBDTNV7hvMfHWIwfB/ZE02tWLEilNwvn376KdXU1JDI9fDoo4+Gb3TILWJehQwUzYGATwIQU30CQ3EQiIKArov6Bx980Dx2gyP+xbOGo88hpkYR3WiTKwGOMRgnqxNPPJGOO+44mjlzZpzdoq8ECOix4N5KbfXV1LIuC7Cpg7rnZg/rb22j+uot1Ni6iVrMAk3Zo/wraLJxrj9zLqaOWltrjd/bj/k72szVM4qXbNPDgWa9FrLMFKWbOrrJNNX83UJq7Oqk5qpsO/afUfb3HY20sCHfRl1rF3WONXbd2drNtZnAfEKX/gnoEYP+xx1VDZFr4tRTT/WdaErGHnEH6ciRI2ndunU0YsQImSqJlcG8Sgw9OgYBkwDEVEwEEGBAQNdFvfgwIhKdiCMzeAoJcPQ5xFTM0jQR4BiDcfK/7bbbzGzHGzZsiLNb9JUAAfUX3FnRs9YSUB3/bQmYdoGVMkLqJiFEmsqlJaxaQquzTaF11lP1wkbq6mymKtc2ZYRUN7G0hWqFoFotI6YaImpda8YGU381bBICcdHPanH3awKxFLRL9WMw6MjDryeO9J977rl02WWX0b333usr0ZSsNZMmTTLF1D/+8Y+0zz77yFaLvRzmVezI0SEIFBCAmIoJAQIMCOi4qLeO+L/00kv0ne98hwFlXiZw9DnEVF5zBNZES4BjDEY74sLWX3vtNXPXze7du5FxN07wCfSl/ILbLXGU/WdZ4dMULK3MUi51MsJkVoR0TUaVEVwNlTIrfGZFUNlsVdndrDeXSnAltTPV0afb2NzaSWBeoUt5AsrHoPxQIy159913m0ltH374Ybr44osj6+vvf/87HXbYYTR16lSaPn16ZP1U2jDmVaUEUR8EKiMAMbUyfqgNAqEQ0HFRP3v2bLrllltwxL/EDOHoc4ipoYQzGlGEAMcYjBNdd3c39e3bl+bMmaNM5uI4+ejUl/ILbiF8zqjJ7dY0feN2PN52fL5gl6nlTJvYWW3t+HRxdP5YvWOXqcSkWDG5BzVY+TYLdso6bC53zL/UNQBudayfSdiGIskRUD4Gk0Nn9vzZZ5+R2C0aVqIpmeE8+eSTZnKrzZs306BBg2SqhFZmx44d9PHHH9OQIUNybbr9DPMqi8f1y7HQ3OF+RYu9+aj7D3EoaCpcAhBTw+WJ1kAgEAEdF/XiPr7Bgweb3x7jKSbA0ecQUzFT00SAYwzGzX/cuHF0wAEH0Lx58+LuGv3FSED5BXdUYqp1pN/NFxXv/rTf15q9WkBqZ2qZO1UhpsYYNeF2pXwMhovDV2si0dRpp51mbs4Qp90OPfRQX/UrKSyuKxNJqcSR/zgft/ki+7M47SzVV+yfr5IWM5Pun4PTU2oDxNSUOh7D5kUg9j86EQ/fOuL/8ssvmxkx8UBMxRwAAW4EdHvvBuH7yCOPmEcmxTsbj74ElBdyzIXqJmq179gsOubvECG9rgZwa9M+BSoWU63GnFcHSCSgws5U7YJR+RhMyCP2RFOLFi2iAw88MFZLtm/fTjU1NXT//fdTU1NTbH3LCqeYV1mXJC1mJt1/bDMTHTkJQEzFnAABBgR0W9Q/8MADZna7v/3tbyTGhgdiKuYACHAjoNt7NwjfnTt30sCBA81jjOIkAR49Cai/4JZJQOU8kp/dGZo7al8iARXlkz2RXWAll2RRXtPDbUFdIMo6k2Jlx7WuLiMUu/XptZsVx/y9vMLi9+rHYPwYxYaMM8880zxq39raGkmiKZlRzZo1i8S/d955hw455BCZKhWXSZeYar0Hs9js16Nkr2ZpbN1ELSIRH1kJBO07/433Z2ut8Xtx3fVcylxx7WgzV0/8Srzbt1Bxm2XcVvQe9uq/4imABhQhADFVEUfBTL0J6LaoP+GEE+ioo46ihx56SG/HVTA6jj7HMf8KHIqqyhHgGINJQBR3wV155ZXU3NycRPfoMwYCegg5Xgtut/tNvRa8zgV3VtQUAmXQnammoGpdmiqca2vTXOOLhXwLWYeGm4zM5NQwg2ogpsYQCcl1oUcMxsfvvvvuo5/85Cc0d+7cSBNNyYzo888/p6OPPtr8wnHhwoUyVSoukx4xVeaLMuN9WXD/tPNLqRJflNV2UHc2I2HBHdrWO9h5p3U5r5X9UszZf8XuRwMKEYCYqpCzYKq+BHRa1FtH/H/zm9/QqFGj9HVahSPj6HOIqRU6FdWVIsAxBpMAOG3aNHrvvffMxB549CQAIUdPv2JU6hBADMr5yp5oavHixXTSSSfJVYy41Pr162n48OER9xKseWHXq6++GqxyRLWkP195XceSFT5rO7opq4tS5gSBfReq+I6qnqpbajM7U12P3DuvW2mhgja9ONjF1C6P/r3awu+1IiApptq/2XWMv852PIasco5vYY0q+eyWxb9zI8pzUZ/UNw8y/cqU0WruajUY6T86Coz65z//Od1666044u/hK44+5/neDXHSB91pFKIJaIoPAY4xmASdZcuWUWNjI+3Zs4d69eqVhAnoM2ICEHIiBozmQcCDAGLQe4rs3r2bxo4dm0iiKW/riDZs2ECffPKJTNGKyyxYsIDeeustamtry7VV6mfiy9BXXnml4j7DbED681VUyQXNKwGKn7rWLuocu9w4HeB2kqEMAdv6YexyQ7h1Ji/MXh1wc+6agTBpoi3OBCoXU8XocoJqCTE1d+RFTkgVTfJc1CclWMr0K1OG81RMt23Sf3QUwHT88cfTt771LZozZ44C1iZnIkef83zvhugjiKkhwlS/KY4xmATVvXv3Up8+fWjVqlU4TZCEA2LoE0JOCJAdx/NdlumFCbJC6BJN6EMAMVjelyLR1JgxY+gb3/gGiS/44k40xW2mpeaYf1RiqlPstDs4yFoAYiq3EGFjj08x1br0N2t/7oOFJZK6iKlFZeTGrv2iXg6Dj1IQU33AYldUl0W9dcT/t7/9LY0cOZIdZ04GcfS59u/dIB+gOE0a2BIqAY4xGOoAfTR24okn0nHHHUczZ870UQtFVSEAIUcVT8FOXQkgBkt71ko0NWnSJHMnZs+ePXWdBtLjSpWY2rCp8Iso+zF9t8/tXlcD2BMJuiXoC7IW8Djm73b1gLSzUVBpApWJqbZMaU3mXRZOMbX0sX8vav4W9fl+mpqI2tvF1u78LtjMPRr57d4ZW4UF1sXzeZHYKmtuA28WEZht29x9ezjdbVzS0W7PCCdaKdm+7XoDxyXHuWsPpC4/dhNKCy/Nz1xgX2ybF2f8ngcBXRb14kPQjBkzcMRfYlpx9Lmv965MhmGXnTz596/9HWwBs31hV0m2TTOrZzYBiP0qGstm+++NrsvaVJRV1Dga1NFICxvsCURsdzmVyyAqMS9QJD4CHGMwvtEX9iTe20uWLDGPMeLRjwCEHP18ihGpRQAx6O4vsW748Y9/TA8//HDiiaY4zajUiKnWZ+ZcsihHQipX4TOri+Q+n5dIQEW2qyjtAiuJJIDBj/k3V3n1z2kmwZaoCVQmppbdmfoE0cRqMjVMKcGwcKi+FvW5u1rtbWQW5TS5BxUk1cwWscRSSwi1FtM5kdNagBdkfBPNFQqW+btgC+3PibHWFQeSd8u6O7zES8L1OhDH7uGoZxDaD4WALov6+vp6+s///E968MEHQ+GicyMcfe7rveslprp9WCm4SN6ZwTP7xZR1NCdwtk0hclrvQbcPZcbvbe/jgkvrpT7U+anvGJPOE1rBsXGMwaQwvvbaazRixAgSd9aJI/949CIAIUcvf2I06hFADBb6TCSaajJ2QC1atMg81s8l0RSXmSV7Z6oe86pwg1iBblRyF6k9n4+xgc7cJGFPSuVo07bJztgFV6GYKmaJV/9cZhLsiJqATzG1hDkud6bmd4hm6hTu/PEelq9FvW1C53eUGn1Yi3FXITO72M6WMfaXGztRidrqq2lLbZOxuzUTkNXZXaeFO28L69oX5vngcizm19nui3UVWMsxcYipblcn5O6lhZjqPbv4ldBhUS+O+H/1q1+lNWvW4EORxBTj6HNf710pMXULlbyMPbJsm44MnXY7TYG3zO9dMnQWHN1xyyrqdfQn+/fJ+IOSz0QqMT9QJHoCHGMw+lG799Dd3U19+/alhx56iMaPH5+UGeg3IgJ6LLgjgoNmQSAGAojBPGR7oqkVK1ZQVZXbWewYnKJBF5hXGjgRQ1CaQOViasGuU7tKnxFQz1hi7Qz1J/L5WtTnxFRHgqucwOjmI8c9r2Ic172T+abCPMKZ2f59+N3Cfst2h6gp1X7+GgBL6LV2s8oLzCX6dWXvj7PSs1cj43VY1Le2ttKdd95JH3zwAYnx4ClPgKPPfb13vcRU47Nxwc59xwkF5/UodlphZNs0b2kxn8z70xQzq12+jXaKoTNqjCtdmilXvUiMdRwNcl5KXy6DaN4ohAcDAhxjMEks48aNowMOOIDmzZuXpBnoOwICWHBHABVNgoAPAojBDKytW7fSKaecgkRTPuZOuaKYVyGBRDMgEJCATzHVS6jLi6l5oTD/s4Jdox4G+1rUBxJT87tlMwt+Y2yZa0eNNfcZtMRcfHdRzQzjqoLcPR5+xFT7blzve1fL44CYGnB+K1NNh0V9XV0dffvb36bZs2crwz1JQzn63Nd7V0JMzfO1f9GW+Tti7vqPMNtmYmJquTElOeHQdxEBjjGYpJvajSM5N998M4lTBnj0IoAFt17+xGjUI4AYJBKJps4++2zz3yOPPIJEUyFMY8yrECC65HcobNWxWS+ELtGEPgQiElMLJ13G/23lAAAgAElEQVR+B5L8ZPS1qC8lpuaCw0MEzl5KbF5NsKnR3JXUZQisM4x798R5/9rc8cxSx+29RGZrh5Z1p0c7+RGWi64OcDnmn2fsbYs+01efkai+qH///ffNb5nXrl1LIis0Hm8CHH3u673rS0y1eNh2idJk6uHM4GnHFvhOI7dj/NnrBrxsNo/5+8wqWnTM31HfeyqgREIEOMZgQijMbnfu3EkDBw6kzZs30+DBg5M0BX2HTAAL7pCBojkQ8Ekg7TF4//330/XXX0/33nsvTZ061Sc9FC9FIO3zCjMDBJImEIuYamzqN+8iNU8/FtxfWnr4vhb1pcRUo/lSCaIK7bDtmsoeRXUXgJ2JoGTbNwwp+NZDXlTOEEICqqQDJer+VV/Uiw9Hd999N474+5goHH0e5L27ybxvWhyKt97z2feb2/2jBWJmtnzo2Ta9ElCVPqbfXOVMiiWRVdTPmHAtmI8Iib4oxxiMftTlexg0aBBdeeWV1NxsXCKPRxsCWHBr40oMRFECaY3Bzz//nC6//HIkmopo3qZ1XkWEE82CgG8CMYmphWKizK7MIIt6Y7+nkUeqk5zX0hUJqkWCbl7szV1P4JokqlhMNaVO85oAG/sSgnGunOPuQG+vufVbmKWuKXtHQXsui7V3qyjBh4Dqi/rhw4fTsGHD6IEHHuADlbklHH3u771b+F4XuDPvoRlUY72Hi+6Vdr6jI8q2aWb1zL6U7e9br52pptjpM6toUZtlxsR8TqbNPI4xmLQPpk2bRtu3b6cXXnghaVPQf4gEsOAOESaaAoEABNIYgyLR1Jlnnkl/+tOf6KWXXkKiqQDzxqtKGueVFxP8HgTiJCAppsZpUqYv34v6+E1EjyAQGgGVF/XWEf9XXnmFTjjhhNCY6N4QR58r/94NcjWA7hMN4ytJgGMMJu2uZcuWUWNjI+3Zs4d69eqVtDnoPyQCWHCHBBLNgEBAAmmLQXuiqcWLF9PBBx8ckByqlSOQtnmF2QAC3AhoIaaqmjm8u7vbcfzfbXpkdnK1VPvLjm62jUcZAiov6u+55x4S/z744ANSNRaTmCgcfQ4xNYmZgD6TIsAxBpNiYfW7d+9e6tOnD61atYpGjRqVtDnoPyQCWHCHBBLNgEBAAmmKQZE/4bTTTkOiqYBzxU+1NM0rP1xQFgTiIgAxNS7SLv1ATE0QPrOuVV7Ui+P9I0aMIHG5PB55Ahx9zlpMlcm2+XIjLTzZcSeqvEtQMmUEOMYgBxeIEwbHH388zZw5k4M5sCEEAlhwhwARTYBABQTSEoOzZ8+mH/7wh+Ymi6uuuqoCYqgqQyAt80qGBcqAQBIEtBBTkwCHPkEgTAKqLupxxD/4LODoc9ZianDUqAkCrgQ4xiAHV82YMYOWLFlCGzZs4GAObAiBABbcIUBEEyBQAQHdY9CeaGrRokV08sknV0ALVWUJ6D6vZDmgHAgkRQBialLk0S8I2Aiouqi/66676L777sMR/wCzmaPPIaYGcCSqKEuAYwxygPnaa6+Zpw1E8hBx5B+P+gSw4FbfhxiB2gR0jsH//d//NY/1I9FU/HNU53kVP030CAL+CUBM9c8MNUAgdAKqLuqPPfZYqq+vp5///OehM9G9QY4+h5iq+6zD+OwEOMYgBw+JK4j69u1LDz30EI0fP56DSbChQgJYcFcIENVBoEICusagSDQ1ZswY+spXvkLLly9HoqkK54nf6rrOK78cUB4EkiIAMTUp8ugXBGwEVFzUW0f8/+u//su8Xw+PPwIcfQ4x1Z8PUVptAhxjkAvRc845hw488ECaN28eF5NgRwUEsOCuAB6qgkAIBHSMQXuiqfb2durVq1cIpNCEHwI6zis/40dZEEiaAMTUpD2A/kHAIKDiov7OO++k1tZWHPEPOIM5+hxiakBnopqSBDjGIBeQYmF88803065du7iYBDsqIIAFdwXwUBUEQiCgWwzOnz+fpkyZQmIt0NzcHAIhNBGEgG7zKggD1AGBJAlATE2SPvoGgSwBFRf13/72t0lkfW5ra4MfAxDg6HOIqQEciSrKEuAYg1xg7ty5kwYOHEibN2+mwYMHczELdgQkgAV3QHCoBgIhEdAlBkWiqWuuuYYef/xxWrx4MRJNhTQ/gjajy7wKOn7UA4GkCUBMTdoD6B8EDAKqLeqtI/6/+93v6LjjjoMPAxDg6HOIqQEciSrKEuAYg5xgDho0iK688krsOuLklIC2YMEdEByqgUBIBHSIQXuiqRUrVtARRxwREh00E5SADvMq6NhRDwQ4EICYysELsCH1BFRb1M+aNcvckfrBBx+YQjAe/wQ4+hxiqn8/ooa6BDjGICeaU6dOpR07dtALL7zAySzYEoAAFtwBoKEKCIRIQPUYFH8LTjnlFCSaCnFOhNGU6vMqDAZoAwSSJAAxNUn66BsEsgRUW9Qfc8wxdNJJJ5l3puIJRoCjzyGmBvMlaqlJgGMMciK5dOlSOvfcc2nPnj1ILMLJMQFswYI7ADRUAYEQCagcgyLR1JlnnkkNDQ20YMEC/D0IcV5U2pTK86rSsaM+CHAgADGVgxdgQ+oJqLSot474//73v6f6+vrU+y4oAI4+h5ga1JuopyIBjjHIiePevXupT58+tGrVKho1ahQn02CLTwJYcPsEhuIgEDIBVWNQJJqaPHkyiRNp1157bchU0FylBFSdV5WOG/VBgAuBnJjKxSDYAQJpJSB2eaqQEfOOO+6g+++/n/7yl7+k1VWhjJujkAMxNRTXohFFCHCMQW7oRJLB448/nmbOnMnNNNjjgwAW3D5goSgIREBAtRj8v//7P3NNIsRUJJqKYEKE1KRq8yqkYaMZEGBDICemCiFnyJAhbAwTxwg2btyIY8RsPAJDoiQgdv08//zzNHbs2Ci7CaVt8Z4YPXo03XfffaG0l9ZGOAo5EFPTOhvTOW6OMcjNEzNmzKAlS5bQhg0buJkGe3wQwILbB6y4im5dQStoDI2pkuhwaxvVVy+kxq5OanYrv2Iy9Wgg6uiea7SIhyMBlWJQJJo6++yz6Z133jFPJiDRFMcZlbFJpXnFl6LNMj/vUq/3shIDhpGVEsAx/0oJoj4IhEBAlUV9V1cXiQzPnZ2dVFdXF8LI09sER59DTE3vfEzjyDnGIDc/vPrqq+Z1Lh999JF55B+PmgSw4Gbmt7AX4X4EAGYo0mKOWwzK/ixKRs6/g/ZEU8uWLaN+/fpF2T3arpAA3u0VAnRW9/MuDfs9HvJQ0Fw8BCCmxsMZvYBAWQKqLOpvv/12euCBB3DEP4T5zNHnEFNDcCyaUIYAxxjkBq+7u5v69u1LDz30EI0fP56bebBHkgAW3JKg4ioW9iLcjwAQ1xjRTwEBWeE07li1/x0UGyXECTkkmlJn8sY9X2TJKPv5ys+7NOz3uCxclGNFAGIqK3fAmLQSUOWPztFHH00nn3wy3XvvvWl1VWjj5uhziKmhuRcNKUCAYwxyxHbOOefQgQceSPPmzeNoHmySIKD8gttatLbWUktLe2bEda3U1dlMuVPvZpkWWmfjUdfaRZ3GufgVk3tQA3VQ99z8IfitbfVUveVm6r7uncwR+o5GWtiQr2/WHbu8oM2mjm7KN7GV2uqrqSXXYVP+mL1lr6NNs351oZ2WjWXdWLRoX0GTjXP9GRJ1xpVogguO+UuEQmJFuIup27dvpylTppDYNPGjH/0oMU7o2B8BvNvLvNvNl3WZ97SJuoJ3qcffpbJ/d2x/i/x5HKW5EYCYys0jsCeVBFRY1FtH/NetW0cjRoxIpZ/CHDRHn0NMDdPDaIs7AY4xyJFZe3s73XzzzbRr1y6O5sEmCQJ6LLiF0GkJltkFcq0lkGYWxIaamRM7TbG0pTYjcBbtNsrU33KzTdy0ibOZuoZKWvSzbHvWAj3Xv7FkF3UWNmYEXkvYLVXf746mgvKZsW7KCsV5McAm5krMCRSJlwBnMVXcj7py5Up65plnzF2peNQhgHe7875o27t9jPPvhOM9nRVSA79Li97zjv7K/d3B5dbqBJmHpRBTtXElBqIyARUW9bfddhs98sgj9Kc//Ull1Gxs5+hziKlspgcMiYEAxxiMYdi+u9i5cycNHDiQNm/eTIMHD/ZdHxWSJ6DLgrvWvjPULjAa4ubWqqr8LlWB3EWAzImt5u+20M1CaM0uiIvbbqGS/XW5JXyyCbrZ3ael7fVIKOWcMvaxuPRdIBwnP91ggQsBEYPiupSamprcb8X9pB9//HFBAmi3n0UJdO3atfTlL3+ZVq9eTUceeWSUXaHtCAjg3e74Is3+bnc9sm8rT8XvcV/v0pJ/O6xkgWVsi2AuoMlkCEBMTYY7egWBAgLWon7IkCFsk3x861vfolNOOQVH/EOauxyFHIipITkXzShBgGMMcgVXXV1N06ZNo2uuuYaribCrDAE9FtzObPbFu1GN8/xGVvvsNQAmD+MIfFcnGSf9MztHxbF+43il/f8Xiq5ZiG47R20/G7s8u3PVhXn+egCHvQXib3Ax1ezb2gFr9W8XEBAJLAmIGHzqqafoggsuyNm3Zs0aEuLppEmTyv4sygFNnz6dli5dSqeddlqU3aDtiAjg3V763Z47YVDiPf0ETazsXer63i38u1Ty705E8wHNxk8AYmr8zNEjCBQRsBb1CxYsIPEtsQjMiy66yJXUW2+9ZdyN1WJ+ixzXYx3xF5mdhw8fHle3WvfDUciBmKr1lMPgHAQ4xiBXJ02dOtVc9L/wwgtcTYRdZQjov+C27r3Li6dFImlu4XsdvWMd8Tev1HMRNmXEVKegaefv1SZBTE1bwHI+5i/WEyNHjkybS7QYL97t1jtcnDQofLcXXL3i4m3X3/v5YkpCTM38fSm2TYvJh0GYBCCmYiKAAAMC9p2pbW1tJP4dfPDBrqKq+CZ71KhRJLIsx/Xceuut9Nhjj+GIf4jAOQo5EFNDdDCaYk+AYwxyhSZ2Lp177rm0Z88e6tWrF1czYVcJAnosuN2O3WeP6osdqTNqChNSmbtUN+V2plqJSLY0ttKmlmw9wctL+LQyXBUdtbe37QDv1WYFYmqz2xUDfjJQI0oSIQAxNRHs2neKd7v5Es/cge18txf9DXBMB7f3pp93qdd73vzbUcI27WdmegYIMTU9vsZIGRNwLurFHUqlRNUkxNSjjjqKvve979E999zDmKJapnEUciCmqjWHYG1lBDjGYGUjiq723r17zStoVq1aZX6Zh0ctArosuEsmoHIumq3EILZj/hndNHs8v8lKXBVQTK3KJhqh1ryAa7fBTSwtd4er13RyqdueG4O1KxcJqLwwJvl7iKlJ0te3b7zbM751fbdbiQJLvaersu/OoO9SrwRU2Wnnbpu+czJtI4OYmjaPY7wsCZRa1LuJqt/4xjdi3ZlqHfF/7bXXaNiwYSz5qWgURyEHYqqKMwk2ByXAMQaDjiWOeieccAIdf/zxNHPmzDi6Qx8hEtBjwW3cQdpaa1xzlL0T1S6IGqxWTO5B+etSxXH/m2lLtZGZvChpVZnEUm67UEv+LCuorrMcVeaKgcxq3zjumb9HNWevYxyubi/aAWUJqKK00a/JRQzVSKgV4rxBU+ERgJgaHku0lCeAd3tOsTTer453u/mrMu9p8/cVvEut93KZv0sZE8S73802zGQdCEBM1cGLGIPyBKxF/YABA+jPf/5z0XjE0cpnn33W/CfKiv+O687UhQsXUkdHh3lfHp7wCHAUciCmhudftMSfAMcY5ExNXPeybNkyev311zmbCdtcCGiz4M4mkwrsZD/34QXuBBVBoJiA8jEIp7IkoPy8cjsqH4Q053c7Z9uCsEadAgIQUzEhQIABAWtRv2jRIpo9ezYDiwpNuP766+nOO+9kZ5fKBnEUciCmqjyjYLtfAhxj0O8Y4iwvEhDW19fTRx99ZB75x6MOASy4M74Sxy0n0hPU2WxtN1XHh7BUbQLKx6Da+LW1Xvl5FZKYyvndztk2bQMjxoFBTI0KttfLwc8Fx1HZiHbZEPBa1C9YsICmT59Ou3fvNjNuimQgcSagYgNKI0O8fJ7EUCGmBqBuf9f7TSoSoDtUCY8AxxgMb3ThtyT+5vTt25ceeughGj9+fPgdoMXICKR+wV10t11kqP03nLvftVRV2/UB/ltHDSYElI9BJhxhRiEB5eeVl17i5fCo3u1hvJejss2LCX4fKwGIqbHitnUGMTUp8iz7LbWot4uozc3NJP699dZbsd6ZyhKYBkZxFHIgplY4sSr9UFhh96jujwDHGPQ3gvhLn3POOXTggQfSvHnz4u8cPQYmoPyCO/DIUREEeBBADPLwg25WYF7p5lGMRzUCEFOT8hjE1KTIs+zXuah3E1GtY5Vr1qyBmMrSi/6M4ijkQEz158Oi0hBTKwQYb3WOMRgvAf+9zZ07l372s5/Rrl27/FdGjcQIYMGdGHp0DAImAcQgJkIUBDCvoqCKNkFAnoAeYqrbAtb5M5ft2k32DJ9F2d6a8lkxsxcHN7ZuMrJlirSdtt+VYo3Mm/KzECXNpFIiodTHH39szLEW8zi/tRPVeTcdxFQ9JgxHIceXmMrxvWtODWfmTue73Mim3NFICxtayErCXNfaRZ1jl5vZNq2fFfx9cPn7YdYR9+7hmL+yAckxBrnD3LlzJw0cOJA2b95MgwcP5m4u7MsSwIIbUwEEkiWAGEyWv669Y17p6lmMSxUC6RBT3e6xyy6Oa01BNbv4ru2g7rljMstx45L66oWN1NXZTFXWQrop/3tPBxcIDStoco8G2mQtvinz3+0yoqxnRyigAwFrUS+O8AtBVQippRJ8iN+LcuLuVDzqEuAo5IQqpibx3rWEVK93eV1r5t1uvevFl2RFP6vNfqGWeV8b/2H8rcjMN/PvQ0v29xBTlQ1CjjGoAszq6mqaNm0aXXPNNSqYCxsNAlhwYxqAQLIEEIPJ8te1d8wrXT2LcalCIEVi6ha6uXsuZdfChf5xPXJvW0BXt5k7ljLCq6Rr7QvsrsmUWYvn+y9YjEs2iWL6EsCiXl/flhoZR5+HL6bG/N4N8i4v+GIt660CgXQrba2qMoXX3FNKQEUCKqUCmWMMqgBw6tSptGPHDnrhhRdUMBc2QkzFHACBxAlA9ErcBVoagHmlpVsxKIUIpENMNVbBKyb3oIb2rGccO0wzwqZ1uLPQe/njn8bR0K5OEqc6pR7bYnvsctsuV6ty9uqAkgKvVCcopAsBLOp18aT8ODj6PFQxNYH3bqB3ucx1BcKtplBr/RERP8hmWLYLqBBT5QOAQUmOMcgAi6cJS5cupXPPPZf27NlDvXr18iyPAskTwII7eR/AgnQTQAym2/9RjR7zKiqyaBcE5AikRkzN47CO2IufZO7Sq7Yf6XfjFiSpCMRUuRmIUiYBLOrTNxE4+jxsMTXu927B9Syy73JPMdX6m5EVTzN3AxinFbJfsEFMVTZ4OcagCjD37t1rXkOzatUqMxkiHv4EsODm7yNYqDcBxKDe/k1qdJhXSZFHvyCQIZBCMdVyve0YP4kdR5uotdTO0wrF1GaXY/6ZXU6FR/8xKdNLAIv69Pmeo8+jE1Njeu+a71Wf73IvMVW8v2fU5O5YNUdi7wdiqrLByzEGVYF5/PHH0wknnEAzZ85UxeRU24kFd6rdj8EzIIAYZOAEDU3AvNLQqRiSUgT0EFOzCZ3yCZ6sbM7ZnURuYmbBAjpbnvJJSUoulgMc82+uyu5syl0vgARUSkVJDMZiUR8DZGZdcPS5LzGV43vXSkDl510uI6baBVorISGO+TOLKP/mcIxB/6NIpsatt95Ky5Yto9dffz0ZA/4/e/cWY1d1H378539GykMxnkxfqj6MUOMxOMgSUl/weAw26QsWUiPZHkNADU928AU8UtOHKibFg03SVhn3IYQZjI36yAu+MU4IJKSqfAkERQJskB1qe9KqI1WDW3naPEQ6/3P2ucw+5+xz9tpn335rre9IVYNn77V/6/Nba19+c9Y+HDWRAA/cibjYGIHMBZiDmZPSYFWAccUwQKBcAUeKqVXE1gNuHXT3/LzItmlZ3/y0aa/33bWKo80CbDMhPZZ0DlRMrbUZfr1Ate2ZDTI1xSdTyx3+eo7OQ72eXBQVicacJyumKjzvBslLeC6PK6Z2vvs1KKIekqtjwdICmQ2+oDBiyb/ptaKoAcdxugQ0zkFb0nTp0iUZHx+XpaWlYMk/P7oFeODWnR+ic1+AOeh+jsvoIeOqDHWOicCKgDvFVLKKgMUCPNRbnLwBQ9eY88TF1AH7zm4IaBDQOAc1uJjEUKlUZPXq1XL8+HF5/PHHTXZhmxIFeOAuEZ9DI1AVYA4yDPIQYFzloUqbCJgLUEw1t2JLBHIT4KE+N1q1DWvMOcVUtcOFwHIQ0DgHc+hmbk1u375d1qxZIydOnMjtGDScjQAP3Nk40goCgwowBweVY79+AowrxgcC5QpQTB3Ev+OVAt1NhF4RMEj77OOdAA/13qVcNOZcdTGV865/kyTnHmucgzl3OdPmZ2dn5fnnn5fFxcVM26Wx7AV44M7elBYRSCLAHEyixbamAowrUym2QyAfAYqp+bjSKgKJBHioT8TlxMYac666mOpE1umEJgGNc1CTT1wsCwsLMjo6KleuXJH169fHbc7vSxTggbtEfA6NQFWAOcgwyEOAcZWHKm0iYC5AMdXcii0RyE2Ah/rcaNU2rDHnFFPVDhcCy0FA4xzMoZu5Njk2Nib79++X5557Ltfj0Hg6AR640/mxNwJpBZiDaQXZP0qAccW4QKBcAYqp5fpzdAQCAR7q/RsIGnNOMdW/cehzjzXOQdvysW/fPrlx44a89dZbtoXuVbw8cHuVbjqrUIA5qDApDoTEuHIgiXTBagGKqVanj+BdEeCh3pVMmvdDY84ppprnjy3tF9A4B21TPXXqlDz++ONy584dGRoasi18b+LlgdubVNNRpQLMQaWJsTwsxpXlCSR86wUoplqfQjrgggAP9S5kMVkfNOacYmqyHLK13QIa56BtosvLyzI8PCxvv/22bN261bbwvYmXB25vUk1HlQowB5UmxvKwGFeWJ5DwrRegmGp9CumACwI81LuQxWR90JhziqnJcsjWdgtonIM2ik5MTMhDDz0kR48etTF8L2LmgduLNNNJxQLMQcXJsTg0xpXFySN0JwQopjqRRjphuwAP9bZnMHn8GnNOMTV5HtnDXgGNc9BGzcOHD8uZM2fkgw8+sDF8L2LmgduLNNNJxQLMQcXJsTg0xpXFySN0JwQopjqRRjphuwAP9bZnMHn8GnNOMTV5HtnDXgGNc9BGzYsXL8qmTZtkaWkpWPLPjz4BHrj15YSI/BJgDvqV76J6y7gqSprjIBAtQDGVkYGAAgEe6hUkoeAQNOacYmrBg4DDlSqgcQ6WCjLgwSuViqxevVqOHz8efBkVP/oEeODWlxMi8kuAOehXvovqLeOqKGmOgwDFVMYAAmoFeKhXm5rcAtOYc4qpuaWbhhUKaJyDCpmMQtq+fbusWbNGTpw4YbQ9GxUrwAN3sd4cDYFOAeYgYyIPAcZVHqq0iYC5AJ9MNbdiSwRyE+ChPjdatQ1rzDnFVLXDhcByENA4B3PoZiFNzs7OyvPPPy+Li4uFHI+DJBPggTuZF1sjkLUAczBrUdqrCTCuGAcIlCtAMbVcf46OQCDAQ71/A0Fjzimm+jcOfe6xxjloaz4WFhZkdHRUrly5IuvXr7e1G87GzQN3I7Xn98iqbSLzlVl5tKhsJznm9WMyPvaGTF67IAfXFhUgxylCgDlYhLJ/x2BcKcz59fNyvnqFeTSrc3jS9pJur5DQppAoptqULWJ1VoCHemdT27NjGnNOMdW/cehzjzXOQZvzsXbtWjlw4IA899xzNnfDydh54LakmOrk6KNTNQHmIOMgDwHGVR6qKdrM+g9iSdtLun2KrrJrXYBiKiMBAQUCPNQrSELBIWjMOcXUggcBhytVQOMcLBUk5cH37t0rN2/elLfeeitlS+yetQAP3BRTsx5TtJdMgDmYzIutzQQYV2ZOhW2VdTEzaXtJty8Mxt0DUUx1N7f0zCIBHuotSlZGoWrMOcXUjJJLM1YIaJyDVsD1CPLUqVPy+OOPy507d2RoaMjmrjgXuxsP3Nfl2PiYTF1spGf3vFRmG4v1gwfIqzI585FMBRvsbizlPy97quv654JdNsrMzIbq78PL/DvabO1X3bxnm332CY4Td8w+wyv8ICyNJf/zk/LGtilZ6XZFmt12bqA63CE35qDDCbK0a9aPq+Y5Lzg318/UsnFGrl04KK1V8sE2K+fA+ibX5EL1XSjn96ySbRK6FgSn7nEZu3pIKt/5rP7alI5zaLDvY+fa2tw9Hz6vxl0XutsM9h9rj7MZY+zQiuhf3/Z6eXT0aaWfHa+O6Sy49jp+Ye/CiRVSvQHFVNXpIThfBHio9yXTK/3UmHOKqf6NQ597rHEO2pyP5eVlGR4elrffflu2bt1qc1eci936B25pPNxuaD40d/x382EwXGBtFDU/ajx0rxQ5m4XWzjYbD+FvTNYf5CPbjNkn9pgxQ6urmFotIIQKC0GRYGpDse98dW42lNMh++dgOW4ctb+A9eOqVcjrdV6u/3GqetJr/RGp7TzY9U7q+jn66qFQcbPrHFr901TP86rhdaHX/kk/GRq1fcNkQ6tAGy6GxnhEFkr7FFObf7QLv6c7fHwKqrGnIIqpsURsgED+AjzU52+s7Qgac04xVdsoIZ48BTTOwTz7W0TbExMT8tBDD8nRo0eLOBzHMBSw/oE76kucwv8W9fAXsU//h/AaZuhBtfEpo+CBtvlAGfllUqF9pPsLrhIVQCOKqW3HT/qgbjg+2Cx/AevnYP5EHGEAAevHVdS5u+08eF2uV9/H3vZdTm3nwY7iYmNFwaHalwz2bHtKep5Xr0V9SWHMdSFqRYHplwiG443Kf1dxNMajszjas1jbKJpSe0YAACAASURBVLAG21+VwGuA8ccuvDOVMYCACgEe6lWkodAgNOacYmqhQ4CDlSygcQ6WTJL68C+88IKcPXtWPvjgg9Rt0UB2AtY/cNeKmNPrI5Z+hh8I2z99ExQxm58ybVKGHlzHgk95NhfPt1v3Wh5ZL4z23uef5a/6HjP2YTXuoZxianaTouCWrJ+DBXtxODMB68dV5Dmt+9OX1fX8smpb4zUAAU31tS2NgmVrWX/1r17h/11/VUvMEvdaU6HtHjuX/LrQdpyoT3rGpDJ4VUGza22rK9pjq77VYOWnl0fSYmq1zb7HNxuGXm/FJ1O9Tj+d1yLAQ72WTBQXh8acU0wtLv8cqXwBjXOwfJV0EVy8eFE2bdokS0tLwZJ/fnQIWP/AnVcxtbPYGk5XxIN4ZIE2tE9cAZdiqo75UEYU1s/BMtA4ZqyA9eMqtpjafAf1SvG0q0ja+iPZd+Sz5hL/2sl20GJqwutC2mJqqEIaesd347UHXX2I8RigmNr3+LEjkA0opjIGEFAgwEO9giQUHILGnFNMLXgQcLhSBTTOwVJBMjh4pVKR1atXy/Hjx4Mvo+JHh4D1D9zBp3A+an0SKVDtWubf8QmkuFcDRLUZU0ytH7MjjvA+cceMGw58MjVOyNrfWz8HrZV3O3Drx1XPpfiNpedRf0jrOg833pM6OSMfTYWWrA9QTD0YLPPvc46Pa3OAT6Z2j9DO1wqErm1xHqmKqc1IIj4Z7PY0StU7iqmp+NgZgWwEeKjPxtGmVjTmnGKqTSOIWNMKaJyDafukYf/t27fLmjVr5MSJExrCIYaqgPUP3EZfQNVRTG28/3SutWyy+Ymeji86kdA3R4cf0iMfihtfTtJrn7WNY/Q8ZsxwpJjq7Hy1fw46mxqrO2b9uGoUUy9Kjy+g6iyctrYPfVK1msHWK1jCy+TjCp/NZfNt28Wc43t+YVPz+pOwEBn1B7h+74SN9eg8fv2/V76IsdG/iw2/qHfE8jqZROcEiqmJuNgYgXwEeKjPx1VzqxpzTjFV84ghtqwFNM7BrPtYRnuzs7Py/PPPy+LiYhmH55gRAtY/cAd9aj4ENjoY99AcbNYsoNb+d/XhcWaDTE3Vvhi6+WUbHW2G3sMXuUQ0Ko7wPkbH7DNEKaY6O3/dmIPOpsfajlk/rprnvODc3HhxaMd7Q9ve6Rmcbw/J1bFttRP5ypcD9vyEa7J3ptbfS5rwutBRfGzF2/n+016jrM/7YIOrWPOdqo324jy6jt8qQNcD2D0/L7JtWtY3vyQr5vjWTo6CAqeYWhA0h0GgnwAP9f6ND405p5jq3zj0ucca56AL+VhYWJDR0VG5cuWKrF+/3oUuWd8H6x+4rc8AHfBdgDno+wjIp//Wj6usPgUZ+nLB2HdT55MKWvVUgGKqbYm/fr76d/ZH5dHwN7rZ1gfi7RLgod6/QaEx5y4UU1e+bbl9CVDkCIv7FJB/w9KrHmucg64kYO3atXLgwAF57rnnXOmS1f2w/oHban2CR8CFV22QRY0C1p/bMyqm1u79/0r+WS60feW9xowRk2sCFFNtymhGJxybuuxLrDzU+5LplX5qzLn9xdSE7yqimOrfxAv1WOMcdCUhe/fulZs3b8pbb73lSpes7of1D9xW6zeC71hq2d0lgz8AuuDgaR+Yg54mPuduWz+u0tY2mufVjaF3X+dsbtw853xjKps3pJhqU/bSnnBs6qtnsfJQ71nCq93VmHPri6lJz5EUU/2beBRTC8n5qVOn5PHHH5c7d+7I0NBQIcfkIL0FrH/gJrkIWC7AHLQ8gUrDZ1wpTQxheSPgUDG1z4vpg3QavLh+flLe2DYlFxvp3zhzTS48dk7Gx1b+bXfzZcfNh/Ak+0TF0fr2ulqIx6rHqr4ouaPN4Jhjtd91xMZH2Z2ZqBoLa87gKu2IxpwnKqaafEtmxF9lW+dQo/PhVZmc+aj6UvraWbn5TZ89Etp5rNqL2r/zWf2c2nzJenApaJxna/8W/lbOyG9u7nesHufq5suaIvoeXFNq5+08rh9Kx7nmsDTOQc1eSWJbXl6W1atXy89//nPZsmVLkl3ZNgcBHrhzQKVJBBIIMAcTYLGpsQDjypiKDRHIRcCRYmqjULqh+vA8W3uS7Vzq2fn7jv+O+Ih46717oY+N1/9tQ/1bQAfZp1nQbcVZe6autvnGpFy7cFDW9mwzfMyOwkAuw4JGixbgob5o8fKPpzHnmRZTo4qTbd+22Xle7nE+NP02zM5Cae290nEF31TF1Ooft3pdH7quQY2+5Xn9KH9IWxeBxjloHWKfgDdt2iQPP/ywHD161KVuWdkXHritTBtBOyTAHHQomYq6wrhSlAxC8VLAjWJq3NLO83tk1TapF0GbaQ7/W9sDfmODnv/WKGYGD+FTsqH5SdXWg3zUvzX2uRYRR/ihu/Hp0+42w8ekmOriTOWh3sWs9u+TxpxnX0y9KofC590wSdR5Oe58GDdMOq8FORdTe5+rr8v16hfwtH1PYNcnYjO+fvD1pXGjo+v3Gudg4k4o3mF6elrefPNN+fDDDxVH6UdoPHD7kWd6qVeAOag3NzZHxriyOXvE7oKAG8XUyIfyUHpqv59eX//0Z/Of496Vl+QhvNlozD6Pnat9srX5EoH24bPySgHDJaltT+kuDEW/+8BDvX/515jzTIup1XPU+T2rZNtcI7cdnzBtffo/IvU9z4dxw6TQYmqfc3Xz/Bxcm5oAteAbXzDS81O7vduMvX7w2pe40UExNbFQuh0uX74sDz74oHzxxRcyPDycrjH2TiXAA3cqPnZGILUAczA1IQ1ECDCuGBYIlCtAMbXzvXmGhdG2d+0Z7hM8DDeX9EflfZACbrnjh6NnJKCxsJZR12imh4DGnGddTF3pev3VK/WyYv3dp2PhV5yYng/jRpOaYmqzv6FvZ075B7zY60ecDb+nmFrwGKhUKjIyMiI/+tGP5Jvf/GbBR+dwYQEeuBkPCJQrwBws19/VozOuXM0s/bJFwI1iqtEy/49kJvwlJF3L/A0+ZZTyYfhgsMy/I47wSKGYasu8yTxOjYW1zDtJg20CGnOeXzG12fXQ+6xlgPNh3BjSUkytnes7V0ME15zG+X+AT6bGXj/ibPg9xdQSxsDOnTvlj/7oj+T1118v4egcsinAAzdjAYFyBZiD5fq7enTGlauZpV+2CLhRTO36YqeYL5zq3D6uiBn1ydNBHobXNuKSmZVXDiR6wO78Yi1bhhlxxgloLKzFxczv0wlozHmiYmrj/aYfNb+hvnlevdj4NGbUO6LbzrUDnA/jyLvO5fVzZs8YU30BVZ8/wHX+4az55YIplvkfjLt+8OqXuNFBMTWxUPodXn31Vfnud78ri4uL6RujhYEFeOAemI4dEchEgDmYCSONdAgwrhgSCJQr4EgxtYbYeDBvvpK06xug+/y+sGJqRJzNh2uTb54Ov4MwyTdclzvGOLqBgMbCmkHYbJJCQGPOkxVTa6fd+hfxrZx250W2Tcv65iqAXu8MXXl5tRwbH5OVV0n3WBZvWijseS7vEWNexdTO98UG5/lDcnUs+CZEmQ2+bDDhaojAoOM6Fr5+pBiLvu6qcQ66louFhQUZHR2Vjz/+WO6//37XumdNf3jgtiZVBOqoAHPQ0cSW3C3GVckJ4PDeCzhUTPU+lwBYLMBDvcXJGzB0jTlPXEwdsO/shoAGAY1zUINL1jGsW7dOnnnmGZmamsq6adozFKid22uvWnj66acN9yhmsxdeeEG+9a1vyT333FPMATkKAiUJvPfee8GRm/+/pDC6Dst1UEsmBouDc/tgbuyFQFYCtXP6qmpjlV/84heyZcuWrNpN3Q4P9akJacAiAW5mLEpWRqFqzDnn3YySSzNWCGicg1bAJQxy//798tvf/lbOnz+fcE82z0qgVkjV+N7a27dvy1133SVDQ0NZdZV2EFAr8MADD8ixY8dUxcd1UFU6EgfDuT0xGTsgkLkAxdTMSWkQgWQC3Mwk83Jha405V11M7XilQPcYCL0iIM0AKeo4aWJk30wENM7BTDqmrJEzZ87I5OSk/Pd//7d8+ctfVhYd4SCAAAL+CnAd9Df39BwBBLIRoJiajSOtIDCwADczA9NZu6PGnKsuplqbaQLXKqBxDmq1ShPX8vKyDA8Py09+8hP5+te/nqYp9kUAAQQQyFCA62CGmDSFAAJeClBM9TLtdFqTADczmrJRTCwac04xtZjccxQdAhrnoA6Z7KPYvHmzbNq0Sb7//e9n3zgtIoAAAggMJMB1cCA2dkIAAQRaAhRTGQwIlCzAzUzJCSjh8BpzTjG1hIHAIUsT0DgHS8PI+cDT09Py5ptvyocffpjzkWgeAQQQQMBUgOugqRTbIYAAAtECFFMZGQiULMDNTMkJKOHwGnNOMbWEgcAhSxPQOAdLw8j5wJcvX5YHH3xQvvjii2DJPz8IIIAAAuULcB0sPwdEgAACdgtQTLU7f0TvgAA3Mw4kMWEXNOacYmrCJLK51QIa56DVoH2Cr1QqMjIyIj/60Y/km9/8pqvdpF8IIICAVQJcB61KF8EigIBCAYqpCpNCSH4JcDPjV75rvdWYc4qp/o1Dn3uscQ66nI+dO3fKXXfdJSdPnnS5m/QNAQQQsEaA66A1qSJQBBBQKkAxVWliCMsfAW5m/Ml1s6cac04x1b9x6HOPNc5Bl/Px6quvyne/+11ZXFx0uZv0DQEEELBGgOugNakiUAQQUCpAMVVpYgjLHwFuZvzJNcVU/3JNj3UKcN4tNi8LCwsyOjoqH3/8sdx///3FHpyjIYAAAgh0CXAdZFAggAAC6QQopqbzY28EUgtwM5Oa0LoGNOacT6ZaN4wIOIWAxjmYojtW7Lpu3Tp55plnZGpqyop4CRIBBBBwWYDroMvZpW8IIFCEAMXUIpQ5BgJ9BLiZ8W94aMw5xVT/xqHPPdY4B13Px/79++W3v/2tnD9/3vWu0j8EEEBAvQDXQfUpIkAEEFAuQDFVeYIIz30Bbmbcz3FnDzXmnGKqf+PQ5x5rnIOu5+PMmTMyOTkpd+7ckaGhIde7S/8QQAAB1QJcB1Wnh+AQQMACAYqpFiSJEN0W4GbG7fxG9U5jzimm+jcOfe6xxjnoej6Wl5dleHhYfvrTn8ojjzzienfpHwIIIKBagOug6vQQHAIIWCBAMdWCJBGi2wLczLidX4qp/uWXHusX4LxbTo42b94smzZtku9///vlBMBREUAAAQQCAa6DDAQEEEAgnQDF1HR+7I1AagFuZlITWteAxpzzyVTrhhEBpxDQOAdTdMeaXaenp+XNN9+UDz/80JqYCRQBBBBwUYDroItZpU8IIFCkAMXUIrU5FgIRAtzM+DcsNOacYqp/49DnHmucgz7k4/Lly/Lggw/KF198ESz55wcBBBBAoBwBroPluHNUBBBwR4Biqju5pCeWCnAzY2niUoStMecUU1MklF2tE9A4B61DHCDgSqUiIyMj8vLLL8sTTzwxQAvsggACCCCQhQDXwSwUaQMBBHwWoJjqc/bpuwoBbmZUpKHQIDTmnGJqoUOAg5UsoHEOlkxS2OF37twpd911l5w8ebKwY3IgBBBAAIF2Aa6DjAgEEEAgnQDF1HR+7I1AagFuZlITWteAxpxTTLVuGBFwCgGNczBFd6zadW5uTg4dOiSLi4tWxU2wCCCAgEsCXAddyiZ9QQCBMgQoppahzjERCAlwM+PfcNCYc4qp/o1Dn3uscQ76ko+FhQUZHR2Vjz/+WO6//35fuk0/EUAAAVUCXAdVpYNgEEDAQgGKqRYmjZDdEuBmxq18mvRGY84ppppkjm1cEdA4B12xNenHunXr5JlnnpGpqSmTzdkGAQQQQCBjAa6DGYPSHAIIeCdAMdW7lNNhbQLczGjLSP7xaMw5xdT8884R9AhonIN6dPKPZP/+/fL555/L/Px8/gfjCAgggAACXQJcBxkUCCCAQDoBiqnp/NgbgdQC3MykJrSuAY05p5hq3TAi4BQCGudgiu5Yt+uZM2dkcnJS7ty5I0NDQ9bFT8AIIICA7QJcB23PIPEjgEDZAhRTy84Ax/degJsZ/4aAxpxTTPVvHPrcY41z0Kd8LC8vy/DwsPz0pz+VRx55xKeu01cEEEBAhQDXQRVpIAgEELBYgGKqxckjdDcEuJlxI49JeqEx5xRTk2SQbW0X0DgHbTdNGv/mzZtl06ZN8v3vfz/prmyPAAIIIJBSgOtgSkB2RwAB7wUoppoOgevHZHzsDZm8dkEOrjXdie0QiBfgZibeyLUtNObc+mJq3uforNs/v0dWbROZr8zKoyYD/Pp5OV/d8lGT6084VuHaFcWrcQ6aDAOXtpmenpY333xTPvzwQ5e6RV8QQAABKwS4DlqRJoJEAAHFAhRTTZOT9YO06XHZznkBbmacT3FXBzXmnGJqzDjM+hqQpJia5thp9nV4amqcgw5zR3bt8uXL8uCDD8oXX3wRLPnnBwEEEECgOAGug8VZcyQEEHBTgGKqaV55IDWVYruEAtzMJARzYHONOaeYSjHVgall3AWNc9A4eEc2rFQqMjIyIi+//LI88cQTjvSKbiCAAAJ2CHAdtCNPRIkAAnoF7C+mNouc85PyxrYpudiw3jhzTS48dq66NH/l33bPV2S2uZ4y2G/ld7Xdgn1qa/iD312VyZmPZGqq1uJumb+2XqbDy/yDTxXNVX81L5VWo3oTTWR6BbiZ0ZubvCLTmPNExdSoPy51/lvEObbtHCzX5dj4mASn2OCnep5tLnmPOgfHLYdvHn9mQ/W8XT0310/qcu3CQWmtjI8971df5dJxLWnF3Nm/xNeA87Knuq6/HtlGmQniDC/z7+HREXP7darfNazxWprOZf6xeclr1OtqV+Mc1CVUTDQ7d+6Uu+66S06ePFnMATkKAggggEAgwHWQgYAAAgikE3CkmFp9oAw9NF8/Ni5jtSf0rn/b0HhYrz/UVv+jVVyt79P4ffNhM1wo7XoH3ZRsCBdn0+WBvT0W4GbGv+RrzHmmxdSo93Q2zqv182ajcLhh5Y9RwTn4jcl68TPqHBw3TJr7tM77nccwPO/3um6kugbUj/1R8w921bef1gurzQKyiUf4nd0mfYkopsbmJQ7Znd9rnIPu6Jr3ZG5uTg4dOiSLi4vmO7ElAggggEBqAa6DqQlpAAEEPBdwppjaVthse2hvZLjtQfi6XF+7duXTSrVN4h6UOz4BK62HYs9HEN1PLcDNTGpC6xrQmPPsi6lX5VCvT5NGvi80VCAcq68cSPQHqzzP+7UvHmwWIhufXE10DYjob9sf8Iw8QsXU6ybXsF7F1D55sW4mDR6wxjk4eG/s3XNhYUFGR0fl448/lvvvv9/ejhA5AgggYJkA10HLEka4CCCgTsCRYmr4EzsdhdHm+s6oZanNZZqttFSXXoYfmmv/u23/Hq8MUJdWArJJgJsZm7KVTawac55pMbV63jy/Z5XU3oQS/HS8DqW1eiCCc+UVLR3n9Tj6xqsB2gu43Z/grAZWf0WL8Xk/XJQc7BrQ9qnb5nFD8Y41V1Mk9TDpS8enUfvlJY7Ypd9rnIMu+Sbpy7p162Tv3r1y8ODBJLuxLQIIIIBACgGugynw2BUBBBCoCnhaTG0usWwUT2sF065PpkYVaOuflPrGqWqR4KOOd/ExnBAYUICbmQHhLN5NY86zLqaupCf8rtD6svageNhc0h+Vx0G+8C+2mDroeb+9mDrINcComJrII0Ffopb2B+bdeWm+UtziqWUcusY5aBy8Yxvu379fPv/8c5mfn3esZ3QHAQQQ0CvAdVBvbogMAQTsEPCzmHqt+smk6fXtX0wSfMLno5hPpjYLrJ3vv7Mj2USpU4CbGZ15yTMqjTnPr5jalAx9SlRC59vWt0OFxAcupvZZpZD2vN9WlEx4DYhaxh/+t/D1x8Sjtr3pNaxnMTUiLx5VUzXOwTzPOZrbPnPmjExOTsqdO3dkaGhIc6jEhgACCDgjwHXQmVTSEQQQKEnA32Jqs3Da+lRqbflm3DL/lQf1+jJVqRdfox5+S0ooh7VPgJsZ+3KWNmKNOU9UTG18qnHlC5Wa30TfOIfWCpfBd/zNSqs+11YgbWwvoU/4x/1BKw497guoOguWrW+1NzzvdxQlk10DGp8Cbb3uoMcXUPXyWNvxuoIkfQnHHZuXOGR3fq9xDrqjm6wny8vLMjw8LD/96U/lkUceSbYzWyOAAAIIDCTAdXAgNnZCAAEEWgJ+FlM73+cXFFEPydWx4OlfZoMvP4l7D+tKMaBS/fZpfhAYVICbmUHl7N1PY86TFVOr9q1iZD0Pu2tLdLdNy/rmH5h6vc+z9cenZgG2mccer10x/WNVs1g7s0GmphrvRO14V2vb+0KTnve7PuEZURDuOyTDy+qrfQ3iDBec+3hU223F3uiTcV86447Ni73zKknkGudgkvhd23bz5s0yMTEhL730kmtdoz8IIICASgGugyrTQlAIIGCRgP3FVIuwCRWBKAFuZvwbFxpznriY6l/a6LFDAhrnoEO8ibsyPT0tp06dkl//+teJ92UHBBBAAIHkAlwHk5uxBwIIIBAWoJjKeECgZAFuZkpOQAmH15hziqklDAQOWZqAxjlYGoaCA1++fFkefPBB+eKLL4Il//wggAACCOQrwHUwX19aRwAB9wUoprqfY3qoXICbGeUJyiE8jTlXXUzteKVAd0pCrwjIIV99m9QcW9EWFh1P4xy0iC/zUCuVioyMjMjLL78sTzzxRObt0yACCCCAQLsA10FGBAIIIJBOgGJqOj/2RiC1ADczqQmta0BjzlUXU63LMAFrF9A4B7Wb5R3fjh07ZPXq1XLy5Mm8D0X7CCCAgPcCXAe9HwIAIIBASgGKqSkB2R2BtALczKQVtG9/jTmnmGrfOCLiwQU0zsHBe+PGnnNzc3Lo0CFZXFx0o0P0AgEEEFAswHVQcXIIDQEErBCgmGpFmgjSZQFuZlzObnTfNOacYqp/49DnHmucgz7no9b3hYUFGR0dlU8++US+9rWv+c5B/xFAAIFcBbgO5spL4wgg4IEAxVQPkkwXdQtwM6M7P3lEpzHnFFPzyDRtahXQOAe1WhUZ17p162Tv3r1y8ODBIg/LsRBAAAHvBLgOepdyOowAAhkLUEzNGJTmEEgqwM1MUjH7t9eYc4qp9o8remAuoHEOmkfv7pb79++Xzz//XObn593tJD1DAAEEFAhwHVSQBEJAAAGrBSimWp0+gndBgJsZF7KYrA8ac04xNVkO2dpuAY1z0G7RbKI/ffq07Nq1S+7cuSNDQ0PZNEorCCCAAAJdAlwHGRQIIIBAOgGKqen82BuB1ALczKQmtK4BjTmnmGrdMCLgFAIa52CK7jiz6/LysgwPD8vbb78tW7dudaZfdAQBBBDQJsB1UFtGiAcBBGwToJhqW8aI1zkBbmacS2lshzTmnGJqbNrYwCEBjXPQId5UXdm8ebNMTEzISy+9lKoddkYAAQQQ6C3AdZDRgQACCKQToJiazo+9EUgtwM1MakLrGtCYc4qp1g0jAk4hoHEOpuiOU7tOT0/LqVOn5Ne//rVT/aIzCCCAgCYBroOaskEsCCBgo0BQTP3Wt74l99xzj5r433vvPbl586bU4uIHAdcFXnjhBfnFL34hW7Zscb2r9K8hULuB5bzLcECgPAHOu+XZxx358uXL8uCDD8oXX3wRLPnnBwEEEEAgewGKqdmb0iICCPglsOrhhx+uaOvy73//e/nDH/4gd911l7bQiAeBXASOHTsmDzzwQC5t06g+AY2Fc867+sYJEeUrwHk3X99BW69UKjIyMiIvv/yyPPHEE4M2w34IIIAAAn0EKKYyPBBAAIF0AquqN63qiqnpusTeCCCAAAIIIIAAArYK7NixQ+6++245ceKErV0gbgQQQEC1AMVU1ekhOAQQsECAYqoFSSJEBBBAAAEEEEDAF4G5uTk5dOiQLC4u+tJl+okAAggUKkAxtVBuDoYAAg4KUEx1MKl0CQEEEEAAAQQQsFVgYWFBRkdH5ZNPPpGvfe1rtnaDuBFAAAG1AhRT1aaGwBBAwBIBiqmWJIowEUAAAQQQQAABXwTWrVsne/fulYMHD/rSZfqJAAIIFCZAMbUwag6EAAKOClBMdTSxdAsBBBBAAAEEELBVYP/+/fL555/L/Py8rV0gbgQQQECtAMVUtakhMAQQsESAYqoliSJMBBBAAAEEEEDAF4HTp0/Lrl275M6dOzI0NORLt+knAgggUIgAxdRCmDkIAgg4LEAx1eHk0jUEEEAAAQQQQMBGgeXlZRkeHpa3335btm7damMXiBkBBBBQK0AxVW1qCAwBBCwRoJhqSaIIEwEEEEAAAQQQ8Elg8+bNMjExIS+99JJP3aavCCCAQO4CFFNzJ+YACCDguADFVMcTTPcQQAABBBBAAAEbBaanp+XUqVPy61//2sbwiRkBBBBQK0AxVW1qCAwBBCwRoJhqSaIIEwEEEEAAAQQQ8Eng8uXL8uCDD8oXX3wRLPnnBwEEEEAgGwGKqdk40goCCPgrQDHV39zTcwQQQAABBBBAQK1ApVKRkZER+fGPfyyPP/642jgJDAEEELBNgGKqbRkjXgQQ0CZAMVVbRogHAQQQQAABBBBAIBDYsWOH3H333XLixAlEEEAAAQQyEqCYmhEkzSCAgLcCFFO9TT0dRwABBBBAAAEEdAvMzc3JoUOHZHFxUXegRIcAAghYJEAx1aJkESoCCKgUoJiqMi0EhQACCCCAAAIIILCwsCCjo6PyySefyNe+9jVAEEAAAQQyEKCYmgEiTSCAgNcCFFO9Tj+dRwABBBBAAAEEdAusW7dO9u3bJ88995zuQIkOAQQQsESAYqoliSJMBBBQK0AxVW1qCAwBBBBAAAEEEECgVki9ceOGvPXWW2AggAACCGQgQDE1A0SaQAABrwUopnqdfjqPAAIIIIAAAgjoUx5w9gAAIABJREFUFjh9+rTs2rVL7ty5I0NDQ7qDJToEEEDAAgGKqRYkiRARQEC1AMVU1ekhOAQQQAABBBBAwG+B5eVlGR4elrffflu2bt3qNwa9RwABBDIQoJiaASJNIICA1wIUU71OP51HAAEEEEAAAQT0C2zevFkmJibkpZde0h8sESKAAALKBSimKk8Q4SGAgHoBiqnqU0SACCCAAAIIIICA3wLT09NSW+7/wQcf+A1B7xFAAIEMBCimZoBIEwgg4LUAxVSv00/nEUAAAQQQQAAB/QKXLl2S8fFxWVpaCpb884MAAgggMLgAxdTB7dgTAQQQqAlQTGUcIIAAAggggAACCKgWqFQqMjIyIj/+8Y/l8ccfVx0rwSGAAALaBSimas8Q8SGAgHYBiqnaM0R8CCCAAAIIIIAAArJjxw65++675cSJE2gggAACCKQQoJiaAo9dEUAAgaoAxVSGAQIIIIAAAggggIB6gbm5OTl06JAsLi6qj5UAEUAAAc0CFFM1Z4fYEEDABgGKqTZkiRgRQAABBBBAAAHPBRYWFmR0dFSuXLki69ev91yD7iOAAAKDC1BMHdyOPRFAAIGaAMVUxgECCCCAAAIIIICAFQLr1q2Tffv2yXPPPWdFvASJAAIIaBSgmKoxK8SEAAI2CVBMtSlbxIoAAggggAACCHgsUCuk3rhxQ9566y2PFeg6AgggkE6AYmo6P/ZGAAEEKKYyBhBAAAEEEEAAAQSsEDh9+rTs2rVL7ty5I0NDQ1bETJAIIICANgGKqdoyQjwIIGCbAMVU2zJGvAgggAACCCCAgKcCy8vLMjw8LG+//bZs3brVUwW6jQACCKQToJiazo+9EUAAAYqpjAEEEEAAAQQQQAABawQ2b94stf87evSoNTETKAIIIKBJgGKqpmwQCwII2ChAMdXGrBEzAggggAACCCDgqcD09LTUlvt/8MEHngrQbQQQQCCdAMXUdH7sjQACCFBMZQwggAACCCCAAAIIWCNw6dIlGR8fl6WlpWDJPz8IIIAAAskEKKYm82JrBBBAoFOAYipjAgEEEEAAAQQQQMAagUqlIiMjI/LjH/9YHn/8cWviJlAEEEBAiwDFVC2ZIA4EELBVgGKqrZkjbgQQQAABBBBAwFOBHTt2yN133y0nTpzwVIBuI4AAAoMLUEwd3I49EUAAgZoAxVTGAQIIIIAAAggggIBVAnNzc3Lo0CFZXFy0Km6CRQABBDQIUEzVkAViQAABmwUoptqcPWJHAAEEEEAAAQQ8FFhYWJDR0VG5cuWKrF+/3kMBuowAAggMLkAxdXA79kQAAQRqAhRTGQcIIIAAAggggAAC1gmMjY3J/v375bnnnrMudgJGAAEEyhSgmFqmPsdGAAEXBCimupBF+oAAAggggAACCHgmsG/fPrlx44a89dZbnvWc7iKAAALpBCimpvNjbwQQQIBiKmMAAQQQQAABBBBAwDqB06dPy65du+TOnTsyNDRkXfwEjAACCJQlQDG1LHmOiwACrghQTHUlk/QDAQQQQAABBBDwSGB5eVmGh4flZz/7mWzZssWjntNVBBBAIJ0AxdR0fuyNAAIIUExlDCCAAAIIIIAAAghYKbB582ap/d/Ro0etjJ+gEUAAgTIEKKaWoc4xEUDAJQGKqS5lk74ggAACCCCAAAIeCRw+fFjOnDkjH3zwgUe9pqsIIIBAOgGKqen82BsBBBCgmMoYQAABBBBAAAEEELBS4NKlSzI+Pi5LS0vBkn9+EEAAAQTiBSimxhuxBQIIINBPgGIq4wMBBBBAAAEEEEDASoFKpSIjIyPyyiuvBF9GxQ8CCCCAQLwAxdR4I7ZAAAEEKKYyBhBAAAEEEEAAAQScFNixY4esWbNGXnvtNSf7R6cQQACBrAUopmYtSnsIIOCbAJ9M9S3j9BcBBBBAAAEEEHBIYG5uTg4dOiSLi4sO9YquIIAAAvkJUEzNz5aWEUDADwGKqX7kmV4igAACCCCAAAJOCiwsLMjo6KhcuXJF1q9f72Qf6RQCCCCQpQDF1Cw1aQsBBHwUoJjqY9bpMwIIIIAAAggg4JDA2NiY7N+/X5577jmHekVXEEAAgXwEKKbm40qrCCDgjwDFVH9yTU8RQAABBBBAAAEnBfbt2yc3b96Uc+fOOdk/OoUAAghkKUAxNUtN2kIAAR8FKKb6mHX6jAACCCCAAAIIOCRw+vRpefLJJ+X27dsyNDTkUM/oCgIIIJC9AMXU7E1pEQEE/BKgmOpXvuktAggggAACCCDgnMDy8rIMDw/Lz372M9myZYtz/aNDCCCAQJYCFFOz1KQtBBDwUYBiqo9Zp88IIIAAAggggIBjAps3b5ba/x09etSxntEdBBBAIFsBiqnZetIaAgj4J0Ax1b+c02MEEEAAAQQQQMA5gcOHD8uZM2fkgw8+cK5vdAgBBBDIUoBiapaatIUAAj4KUEz1Mev0GQEEEEAAAQQQcEzg0qVLMj4+LktLS8GSf34QQAABBKIFKKYyMhBAAIF0AhRT0/mxNwIIIIAAAggggIACgUqlIiMjI/LKK6/Irl27FERECAgggIBOAYqpOvNCVAggYI8AxVR7ckWkCCCAAAIIIIAAAn0EduzYIWvWrJHXXnsNJwQQQACBHgIUUxkaCCCAQDoBiqnp/NgbAQQQQAABBBBAQInA3NycHDp0SBYXF5VERBgIIICAPgGKqfpyQkQIIGCXAMVUu/JFtAgggAACCCCAAAI9BBYWFmR0dFSuXLki69evxwkBBBBAIEKAYirDAgEEEEgnQDE1nR97I4AAAggggAACCCgSGBsbkwMHDsizzz6rKCpCQQABBPQIUEzVkwsiQQABOwUoptqZN6JGAAEEEEAAAQQQiBDYt2+f3Lx5U86dO4cPAggggECEAMVUhgUCCCCQToBiajo/9kYAAQQQQAABBBBQJHD69Gl58skn5fbt2zI0NKQoMkJBAAEEdAhQTNWRB6JAAAF7BSim2ps7IkcAAQQQQAABBBDoEFheXpbh4WH52c9+Jlu2bMEHAQQQQKBDgGIqQwIBBBBIJ0AxNZ0feyOAAAIIIIAAAggoE5iYmJCHHnpIjh49qiwywkEAAQTKF6CYWn4OiAABBOwWoJhqd/6IHgEEEEAAAQQQQKBD4PDhw3L27Fl5//33sUEAAQQQ6BCgmMqQQAABBNIJUExN58feCCCAAAIIIIAAAsoELl26JOPj47K0tBQs+ecHAQQQQGBFgGIqowEBBBBIJ0AxNZ0feyOAAAIIIIAAAggoE6hUKjIyMiKvvPKK7Nq1S1l0hIMAAgiUK0AxtVx/jo4AAvYLUEy1P4f0AAEEEEAAAQQQQKBDYMeOHbJmzRp57bXXsEEAAQQQCAlQTGU4IIAAAukEKKam82NvBBBAAAEEEEAAAYUCs7Oz8vzzz8vi4qLC6AgJAQQQKE+AYmp59hwZAQTcEKCY6kYe6QUCCCCAAAIIIIBASGBhYUFGR0fl6tWrct9992GDAAIIINAQoJjKUEAAAQTSCVBMTefH3ggggAACCCCAAAJKBcbGxuTAgQPy7LPPKo2QsBBAAIHiBSimFm/OERFAwC0Biqlu5ZPeIIAAAggggAACCDQE9u3bJzdv3pRz585hggACCCDQEKCYylBAAAEE0glQTE3nx94IIIAAAggggAACSgVOnz4tTz75pNy+fVuGhoaURklYCCCAQLECFFOL9eZoCCDgngDFVPdySo8QQAABBBBAAAEEqgLLy8syPDws77zzjjz88MOYIIAAAghUBSimMgwQQACBdAIUU9P5sTcCCCCQu8B7770ntf/jBwEEyhO455575Omnny4vAI48sMDExERQSD1y5MjAbdi6I9cPWzNH3C4JaLx+UEx1aYTRFwQQKEOAYmoZ6hwTAQQQSCDwd3/3d3Ls2DF54IEHEuzFpgggkJXAjRs3pPYwzB81shIttp3Dhw/L2bNn5f333y/2wAqOxvVDQRIIwWsBrdcPiqleD0s6jwACGQhQTM0AkSYQQACBPAVqD8N8uihPYdpGoL8Ac9DuEXLp0iUZHx+XpaWlYMm/Tz+MXZ+yTV81CmidgxRTNY4WYkIAAZsEKKbalC1iRQABLwW03oh7mQw67aUAc9DutFcqFRkZGZFXXnlFdu3aZXdnEkbP2E0IxuYIZCygdQ5STM040TSHAALeCVBM9S7ldBgBBGwT0Hojbpsj8SIwqABzcFA5Pfvt2LEj+FTq8ePH9QRVQCSM3QKQOQQCfQS0zkGKqQxbBBBAIJ0AxdR0fuyNAAII5C6g9UY8945zAASUCDAHlSQiRRizs7PBF1DdunUrRSv27crYtS9nROyWgNY5SDHVrXFGbxBAoHgBiqnFm3NEBBBAIJGA1hvxRJ1gYwQsFmAOWpy8RugLCwsyOjoqV69elfvuu8/+Dhn2gLFrCMVmCOQkoHUOUkzNKeE0iwAC3ghQTPUm1XQUAQRsFdB6I26rJ3EjkFSAOZhUTOf2Y2NjcuDAAXn22Wd1BphDVIzdHFBpEoEEAlrnIMXUBElkUwQQQCBCgGIqwwIBBBBQLqD1Rlw5G+EhkJkAczAzylIb2rdvn9y8eVPOnTtXahxFHpyxW6Q2x0KgW0DrHKSYymhFAAEE0glQTE3nx94IIIBA7gJab8Rz7zgHQECJAHNQSSJShnH69Gl58skn5fbt2zI0NJSyNTt2Z+zakSeidFdA6xykmOrumKNnCCBQjADF1GKcOQoCCCAwsIDWG/GBO8SOCFgmwBy0LGE9wl1eXpbh4WF555135OGHH3ajUzG9YOx6kWY6qVhA6xykmKp40BAaAghYIUAx1Yo0ESQCCPgsoPVG3Oec0He/BJiD7uR7YmIiKKQeOXLEnU716Qlj14s000nFAlrnIMVUxYOG0BBAwAoBiqlWpIkgEUDAZwGtN+I+54S++yXAHHQn34cPH5azZ8/K+++/706nKKZ6kUs6aaeA1usHxVQ7xxNRI4CAHgGKqXpyQSQIIIBApIDWG3HShYAvAsxBdzJ96dIlGR8fl6WlpWDJv+s/jF3XM0z/tAtonYMUU7WPHOJDAAHtAhRTtWeI+BBAwHsBrTfi3icGAG8EmIPupLpSqcjIyIjMzs7K5OSkOx3r0RPGrvMpDnXwvOxZtU3mZLfMV2bl0ciud24T998++eXTV61zkGJqPvmmVQQQ8EeAYqo/uaanCCBgqYDWG3FLOQkbgcQCzMHEZKp32L59u3zlK1+R48ePq44zi+AYu1ko2tIGxVSNmdI6BymmahwtxIQAAjYJUEy1KVvEigACXgpovRH3Mhl02ksB5qBbaa99KrX2BVS3bt1yq2MRvWHsOp/iUAdNiqmdHnwyNe8RonUOUkzNO/O0jwACrgtQTHU9w/QPAQSsF9B6I249bFwHzu+RVdvmRDbOyMyGKZmq/k9pLJ8cOzYuY1MXgxZ2z1dkNrSe8nrod92/Dz24Xlsv02NTUm9lo8xcuyAH19b+d9QD8SAPyXEd5PemAsxBUyk7tltYWJDR0VG5evWq3HfffXYEPWCUjN0B4SJ3Mzw3N68drTa6l92bXSc2yu7dInNztatE+BrRq0+h+OZFttWuX/WrVGjZf1zxlGtNliOm1pbWOUgxNetM0x4CCPgmQDHVt4zTXwQQsE5A6424dZBJA+56IO7RQLXYeu3CQanVQc/vWSWt59fQ5htnrsmFoFLafFCNaKvVjuEDe9L+sP3AAszBgenU7jg2NiYHDhyQZ599Vm2MWQTG2M1CsdmGwbn5+jEZb/2RrO0ikPI60e89qJ3xRfW5uT/F1CxHhElbWucgxVST7LENAggg0FuAYiqjAwEEEFAuoPVGXDlb+vBaxdTGQ2jrvxufEJLmQ3Pj982H6FBxtftTpivF1FaBtfM4fDI1fe4yboE5mDGogub27dsXLPM/e/asgmjyC4Gxm6WtQTE1tKKh+Ue2tggGvU4YdSPi+hL6A159FQXFVCPKDDfSOgcppmaYZJpCAAEvBSimepl2Oo0AAjYJaL0Rt8lwoFg7H4pbnzjq8Qmfvp9kbS7RbD7I9lvWb/DAPlCH2GlQAebgoHJ69zt9+rQ8+eSTcvv2bRkaGtIbaMrIGLspAdt2Nzg3R34yNXS+H/g6YdKP6CX6zRUT9T/gXZM9q7bJXGvpf1xx1eS4bNNPQOscpJjKuEUAAQTSCVBMTefH3ggggEDuAlpvxHPveNkH6FVM7bUcP+a1ANGfCqp10uRhlvfYlTkcmINl6udz7OXlZRkeHpZ33nlHHn744XwOoqBVxm6WSTAoptYO16+geq3xLu4eYbVfJ0zekxpuiGJqltnOqi2tc5BialYZph0EEPBVgGKqr5mn3wggYI2A1htxawAHDTRpMbXrk6tRBzZ5GF9Zqtn8cquVLysxeW/eoB1mv14CzEE3x8bExERQSD1y5IibHaz2irGbZWoHOzc3PxkanM/HOl4PExle1AoGk36wzN9EqehttM5BiqlFjwSOhwACrglQTHUto/QHAQScE9B6I+4cdGeHkhZTq/v3+gIqSfTlUtfl2PiYTNW+wLnrh2JqGeOOOViGev7HPHz4cPDO1Pfffz//g5V0BMZulvAG5+aeKxRWPmVqfp0Y9JOpEX3ueQ0yWRmRpaF/bWmdgxRT/RuL9BgBBLIVoJiarSetIYAAApkLaL0Rz7yj2hocoJha60LXg3LfL6QK9uh4h131nzqWie6enxfZFn7PnTYst+NhDrqZ30uXLsn4+LgsLS0FS/5d/GHsZpxVk3NzV0G1uyhqdp0YtJha/aNbcMmYa3Q+/Ee4uOIpr5TJeMSo/XQ4xdSsM017CCDgmwDFVN8yTn8RQMA6AR6GrUsZATsmwBx0LKGN7lQqFVm9erWcOHFCJicnnewkY9fJtNIpiwS0zkGKqRYNIkJFAAGVAhRTVaaFoBBAAIEVAa034uQIAV8EmIPuZnr79u3yla98RY4fP+5kJxm7jqQ18kutwn1L+ilWR1ws6IbWOUgx1YLBQ4gIIKBagGKq6vQQHAIIIMAXiDAGEChbQOvDcNkuLhx/dnY2+AKqW7duudCdrj4wdh1JK8VUaxOpdQ5STLV2SBE4AggoEaCYqiQRhIEAAgj0EtB6I07GEPBFgDnobqYXFhZkdHRUPv30U7n33nud6yhj17mU0iHLBLTOQYqplg0kwkUAAXUCFFPVpYSAEEAAgXYBrTfi5AkBXwSYg25nemxsTJ599lk5cOCAcx1l7DqXUjpkmYDWOUgx1bKBRLgIIKBOgGKqupQQEAIIIEAxlTGAgCYBrQ/DmoxsjmXfvn3BMv+zZ8/a3I3I2Bm7zqWUDlkmoHUOUky1bCARLgIIqBOgmKouJQSEAAIIUExlDCCgSUDrw7AmI5tjOXXqlDz11FNy+/ZtGRoasrkrXbEzdp1KJ52xUEDrHKSYauFgImQEEFAlQDFVVToIBgEEEOgW0HojTq4Q8EWAOeh2ppeXl2V4eFjeeecdefjhh53qLGPXqXTSGQsFtM5BiqkWDiZCRgABVQIUU1Wlg2AQQAABiqmMAQS0CWh9GNbmZHM8ExMTsmXLFnnxxRdt7kZX7Ixdp9JJZywU0DoHKaZaOJgIGQEEVAlQTFWVDoJBAAEEKKYyBhDQJqD1YVibk83xHD58WM6dOye/+tWvbO4GxVSnskdnXBDQev2gmOrC6KIPCCBQpgDF1DL1OTYCCCBgIKD1RtwgdDZBwAkB5qATaezbiUuXLsn4+LgsLS0FS/5d+WHsupJJ+mGrgNY5SDHV1hFF3AggoEWAYqqWTBAHAggg0ENA6404CUPAFwHmoPuZrlQqsnr1ajlx4oRMTk4602HGrjOppCOWCmidgxRTLR1QhI0AAmoEKKaqSQWBIIAAAtECWm/EyRcCvggwB/3I9Pbt2+UrX/mKHD9+3JkOM3adSSUdsVRA6xykmGrpgCJsBBBQI0AxVU0qCAQBBBCIFvjHf/xHqd2M175xmh8EEChH4C//8i/l1KlT5RycoxYiMDs7K0eOHJFbt24VcrwiDsL1owhljoFAfwGN1w+KqYxaBBBAIJ0AxdR0fuyNAAII5C5QK6SeOXNGfvjDH+Z+rCQH2Lp1q8zMzMgDDzyQZDe2RcA6gddff10+//xz+Zd/+RfrYidgc4GFhQUZHR2VTz/9VO69917zHRVvyfVDcXIIzQsBrdcPiqleDD86iQACOQpQTM0Rl6YRQACBLARYIpaFIm0gMLiA1jk4eI/Ys5fA2NiYPPvss3LgwAEnkLSOXQo5TgwvOmEgwBw0QGITBBBAwEIBiqkWJo2QEUDALwFuxP3KN73VJ6B1DuqTsj+ivXv3Su0TqmfPnrW/M9UeaB27FFOdGF50wkCAOWiAxCYIIICAhQIUUy1MGiEjgIBfAtyI+5VveqtPQOsc1Cdlf0S19+I+9dRTcvv2bRkaGrK+Q1rHLsVU64cWHTAUYA4aQrEZAgggYJkAxVTLEka4CCDgnwA34v7lnB7rEtA6B3UpuRFN7Yv+hoeH5d1335WHHnrI+k5pHbsUU60fWnTAUIA5aAjFZggggIBlAhRTLUsY4SKAgH8C3Ij7l3N6rEtA6xzUpeRONBMTE7JlyxZ58cUXre+U1rFLMdX6oUUHDAWYg4ZQbIYAAghYJkAx1bKEES4CCPgnwI24fzmnx7oEtM5BXUruRHP48GE5d+6c/OpXv7K+U1rHLsVU64cWHTAUYA4aQrEZAgggYJkAxVTLEka4CCDgnwA34v7lnB7rEtA6B3UpuRPNpUuXZHx8XJaWloIl/zb/aB27FFNtHlXEnkSAOZhEi20RQAABewQoptqTKyJFAAFPBbgR9zTxdFuNgNY5qAbIsUAqlYqsXr1aTpw4IZOTk1b3TuvYpZhq9bAi+AQCzMEEWGyKAAIIWCRAMdWiZBEqAgj4KcCNuJ95p9d6BLTOQT1C7kWyfft2GRkZkVdffdXqzmkduxRTrR5WBJ9AgDmYAItNEUAAAYsEKKZalCxCRQABPwW4Efcz7/Raj4DWOahHyL1IZmdn5ciRI3Lr1i2rO6d17FJMtXpYEXwCAeZgAiw2RQABBCwSoJhqUbIIFQEE/BTgRtzPvNNrPQJa56AeIfciWVhYkNHRUfn000/l3nvvtbaDWscuxVRrhxSBJxRgDiYEY3MEEEDAEgGKqZYkijARQMBfAW7E/c09PdchoHUO6tBxN4qxsTF59tln5cCBA9Z2UuvYpZhq7ZAi8IQCzMGEYGyOAAIIWCJAMdWSRBEmAgj4K2B2I35e9qzaJnNRTBtn5NqFg7I2+F1zu40yc+2CHKz/Y/03e1bJtqCB7t9FNZvuYbgZx26Zr8zKo624mv8dl+/O/eO2j/q9SRsm2wxybPaxScBsDtrUI2I1Edi7d6/UPqF69uxZk81VbmM2dm27fmiiNrlGxF3vTNoI99lke5NtNDm6G4vZHCy+/+nu4YqPlyMigAAC2gQopmrLCPEggAACHQJmN+J9HoaD+mizoNqjmHp+j6wKKqlmhdRak+luxOMeLuOGQRYPiiZtmGwTFyu/t13AbA7a3kvi7xQ4deqUPPXUU3L79m0ZGhqyEshs7Np2/dCUCpNrRNz1zqQNiqmasp4kFrM5mKTFbLZNdw+XTQy0ggACCNgsQDHV5uwROwIIeCFgdiPe42Hs+jEZH5uSi60iaUQxtWsbM9Z0N+JJHx47Y0q7v1kfVz7Ja/qJWdN22c4mAbM5aFOPiNVEYHl5WYaHh+Xdd9+Vhx56yGQXdduYjV3brh+amAe5FsUVV7Po3yBxZXFc2ugUMJuDxbulu4crPl6OiAACCGgToJiqLSPEgwACCHQImN2I93pwui7Hxsdk6qLI7vmKzD7aWUztvew/LhHJbsRX4qi1u3t+XmRb7bUEfZb5tz4t24wkXNAM9/cbcqr1igPzT9ZGF0rj4oxT4fcuCpjNQRd7Tp8mJiZky5Yt8uKLL1qJYTZ2NV8/omKL+Le+14t66q4fG5ex2sWw8VO/Jjb/a+VauHu3yNxcbTuT60koluCy1nzZTq/rVdRrbZIWPqO259qldYKazcHio092D1d8fBwRAQQQ0C5AMVV7hogPAQS8FzC7ER/kk0X/LPJX9UJrtboplZWnSiNz8xvx9oe89sZ7FFNbn5btCKXrdQURoba9I7ZfVzrNTOI0omEjxwRqc/DMmTPywx/+UF3PaoU+fvITOHz4sJw7d05+9atf5XeQHFu2//phUEyNvV6E3wnejr1x5ppcCF4eHvWqA5MVCf1ekdDrj4VpP5nKtSvHKZN502ZzMPPDxjZofg8X2xQbIIAAAl4KUEz1Mu10GgEEbBIwuxFP/s67lU/f1DXaP6UTL2R8Ix71GoHWp4h6PGw2f9+zMLrS39bDcOs4Jg/Atf51PJAaxRnvwhbuCdTm4A9+8AP5/e9/r65z//AP/yB//dd/rS4uVwK6ePGibNq0SZaWloIl/7b9WH/9iPxywo5zd9z1onluj/wyxs5rUO0V480Cq0m2I65FocJs+4oQ0+Jq3HG5dsUJafq92RwsPmLje7jiQ+OICCCAgBUCFFOtSBNBIoCAzwJmN+J9iqltnzpt3672oPeNU6ukvjLRtAhZz4bxjXjzQTcyjiSfTA0vuTT4tFLsoOnxQN43zthG2cBBAbM5WHzHjx8/Lvv27ZNPPvlE1q6tfbqOn6wFKpWKrF69Wk6ePCk7d+7Muvnc2zMbu4qvHybF1MhPpoauF12vAAizN7cb9JU30atCzu+pX1frhdlrsid4FU1OxVSja2zuQ40D9BAwm4PF8xnfwxUfGkdEAAEErBCgmGpFmggSAQR8FjC7ETd959rKQ/PKJ1GjPlkTL258I270oBcRf98HZIqp8Rlii6wEzOZgVkdL1s7Xv/51uXPnjly4cEG+9KUvJduZrY0Etm/fLiMjI/Lqq68aba9pI7Oxq/j6YVJMrYH3u15c2yOrWu8tLDgIAAAgAElEQVQy7c5O9PvETbNIMdVUytftzOZg8TrG93DFh8YREUAAASsEKKZakSaCRAABnwXMbsSTPgy3f7HGyhdzmHzhRj0bxjfiEcvnV47X5wuoOpLe/KRP9LLJ2samBs2G45dKdsfp80j0t+9mc7Acn//4j/+QdevWyfe+9z35zne+U04Qjh91dnZWjhw5Irdu3bKup2Zj1/TcGf3pzVyvH11L5sNfJNV7NUXb9WLsmIyPTcnFvqsv0n4yNfx6gM4/Wsa9I9XUn2uXdROwGrDZHCy+Z8b3cMWHxhERQAABKwQoplqRJoJEAAGfBcxuxE0fxno9MIa+fMnwC5zMb8RNvtipx5L7rsR3Lsns943JcaOm08wkzrg2+b2LAmZzsLyes9w/X/uFhQUZHR2VTz/9VO699958D5Zx62Zj1/LrR89l/Ct/HGwWV7svKTNy7cJBWdsq2pr/QbHeVp9XJHR9YWJOy/yFa1fG0ybT5szmYKaHNGrM/B7OqDk2QgABBLwToJjqXcrpMAII2CZgdiOe9mG4qhJaJmnyBRzJbsTbH/Z2z8+LbOv3DrnaM2rn0syc35kaDIy4OG0bPcSbhYDZHMziSIO3wXL/we1M9qy9k/bgwYOyf/9+k83VbGM2dpVfPzqW8HdfP+KuF/V0dBVUI7+QatBiarVQGlzWgheQV3/6/aEv7pOqccMnKl9cu+LUyvq92RwsPrpk93DFx8cREUAAAe0CFFO1Z4j4EEDAewFuxL0fAgCULKB1DoZZWO6f7yDZu3ev/O53v5MzZ87ke6CMW9c6dinkZJxomlMrwBxUmxoCQwABBFIJUExNxcfOCCCAQP4Ctt+I1x6ai/ypfft29JeRhKNY+fRRkviCtvnxTkDrHOxMBMv98xuap06dkqeeekpu374tQ0ND+R0o45a1jl3TYmqS83OWdHleR3rFmecxuXZlOTqStWX7HEzWW7ZGAAEE/BGgmOpPrukpAghYKmD7jXjRD8M8kFo60BWHrXUORpGx3D+fgbS8vCzDw8Py7rvvykMPPZTPQXJoVevYpZjanWyuXTlMAAVN2j4HFRASAgIIIKBSgGKqyrQQFAIIILAiwI04owGBcgW0zsEoFZb75zdWJiYmZMuWLfLiiy/md5CMW9Y6dk2LqRlz0BwChQswBwsn54AIIIBAIQIUUwth5iAIIIDA4ALciA9ux54IZCGgdQ726hvL/bPIencbhw8flrfeeksuX76czwFyaFXr2KWYmkOyaVKlAHNQZVoICgEEEEgtQDE1NSENIIAAAvkKcCOery+tIxAnoHUO9oub5f5xWU3++4sXL8qmTZtkaWkpWPJvw4/WsUsx1YbRQ4xZCDAHs1CkDQQQQECfAMVUfTkhIgQQQKBNgBtxBgQC5QponYP9VFjun/2Yqb3TcvXq1XLy5EnZuXNn9gfIoUWtY5diag7JpkmVAsxBlWkhKAQQQCC1AMXU1IQ0gAACCOQrwI14vr60jkCcgNY5GBc3y/3jhJL/fvv27TIyMiKvvvpq8p1L2EPr2KWYWsJg4JClCDAHS2HnoAgggEDuAhRTcyfmAAgggEA6AW7E0/mxNwJpBbTOQZN+sdzfRMl8m9nZWTly5IjcunXLfKcSt9Q6dimmljgoOHShAszBQrk5GAIIIFCYAMXUwqg5EAIIIDCYADfig7mxFwJZCWidgyb9Y7m/iZL5NgsLCzI6OiqfffaZrFu3znzHkrbUOnYpppY0IDhs4QLMwcLJOSACCCBQiADF1EKYOQgCCCAwuAA34oPbsScCWQhonYOmfWO5v6mU2XZr166VgwcPyv79+812KHErrWOXYmqJg4JDFyrAHCyUm4MhgAAChQlQTC2MmgMhgAACgwlwIz6YG3shkJWA1jmYpH8s90+i1X/bvXv3yu9+9zs5c+ZMdo3m1JLWsUsxNaeE06w6AeagupQQEAIIIJCJAMXUTBhpBAEEEMhP4Omnn5b33ntPav9f088LL7wg3/rWt+See+7RFBaxIJC5QG3+/ed//qd8+umnmbddVIMs989O+tSpU/LUU0/J7du3ZWhoKLuGc2iJ60cOqDSJQAIBrdcP/qCRIIlsigACCEQIUExlWCCAAALKBb7xjW/IL3/5S3nggQdURVp7QKjFNDw8rCougkEga4EbN27IH/7wB6m9L9PmH5b7Z5O95eXl4Lz37rvvykMPPZRNozm1wvUjJ1iaRcBQQOv1g2KqYQLZDAEEEOghQDGVoYEAAggoF2CJmPIEEZ7zAlrn4CDwLPcfRK17n4mJCdm6datMT09n02BOrWgduxRycko4zaoTYA6qSwkBIYAAApkIUEzNhJFGEEAAgfwEuBHPz5aWETAR0DoHTWLv3Ibl/oOode9Te83J/Py8XL58OZsGc2pF69ilmJpTwmlWnQBzUF1KCAgBBBDIRIBiaiaMNIIAAgjkJ8CNeH62tIyAiYDWOWgSe9Q2LPcfVG5lv4sXL8qmTZtkaWlJ9atOtI5diqnpxyAt2CHAHLQjT0SJAAIIJBWgmJpUjO0RQACBggW4ES8YnMMh0CGgdQ6mSRTL/dPoiVQqFVm9erWcPHlSdu7cma6xHPfWOnYppuaYdJpWJcAcVJUOgkEAAQQyE6CYmhklDSGAAAL5CHAjno8rrSJgKqB1DprGH7Udy/3T6NX33b59u4yMjMirr76avrGcWtA6dimm5pRwmlUnwBxUlxICQgABBDIRoJiaCSONIIAAAvkJcCOeny0tI2AioHUOmsTebxuW+6cTnJ2dlSNHjsitW7fSNZTj3lrHLsXUHJNO06oEmIOq0kEwCCCAQGYCFFMzo6QhBBBAIB8BbsTzcaVVBEwFtM5B0/j7bcdy/8EVFxYWZHR0VD777DNZt27d4A3luKfWsUsxNcek07QqAeagqnQQDAIIIJCZAMXUzChpCAEEEMhHgBvxfFxpFQFTAa1z0DT+ftux3D+d4tq1a+XgwYOyf//+dA3ltLfWsUsxNaeE06w6AeagupQQEAIIIJCJAMXUTBhpBAEEEMhPgBvx/GxpGQETAa1z0CR2k21ee+012bt3r3zyySdSKw7yYy5Qc/vd734nZ86cMd+pwC21jl2KqQUOAg5VqgBzsFR+Do4AAgjkJkAxNTdaGkYAAQSyEeBGPBtHWkFgUAGtc3DQ/kTtx3L/wTRPnTolTz31lNy+fVuGhoYGayTHvbSOXYqpOSadplUJMAdVpYNgEEAAgcwEKKZmRklDCCCAQD4C3Ijn40qrCJgKaJ2DpvGbbMdyfxOl7m2Wl5dleHhYfv7zn8vmzZsHayTHvbSOXYqpOSadplUJMAdVpYNgEEAAgcwEKKZmRklDCCCAQD4C3Ijn40qrCJgKaJ2DpvGbbsdyf1Op9u02bdokjzzyiExPTw/WQI57aR27FFNzTDpNqxJgDqpKB8EggAACmQlQTM2MkoYQQACBfAScvBE/v0dWbROZr8zKo9ePyfjYGzJ57YIcjHtdY5Jts0pHGcfMKnbayURA6xzMpHMdjbDcP7nqCy+8IPPz83L58uXkO+e4R+3VA0888YT83//9n7z33ns5Hil501YXU+OuCeHrW3Ia9nBMQOv1w+o56NgYoTsIIGCnAMVUO/NG1Agg4JGAkzfigz5sxj3EejQu6GpxAlrnYB4CLPdPrnrx4kWpfTp1aWkpWPJfxE+/MVkrov7TP/2THDt2TCqVitx3331y6dKlIsIyPobThZxBr2/Gemxok4DW64fTc9CmAUKsCCBgrQDFVGtTR+AIIOCLgJM34oM+bFJM9WXYq+qn1jmYFxLL/ZPJ1gqWq1evltdff1127NiRbOcBt44ak+Ei6po1a6S2zY0bN4JPpfLJ1AGhB9lt0OvbIMdiH/UCWq8fFFPVDx0CRAAB5QIUU5UniPAQQAABN27Ez8ue6rr+uSCdG2VmZoNMTfVY5h8UTKfkYij1u+crMvto9R+axdRg/3prtZ/W7+OGS9T+G2fk2oWDErxhIPj9VZmc+ajafi2C3TJ/bb1Mt72G4LocGx+T4Nf1g0slCK750/H7Whu11xnExcbv1QponYN5grHcP5nu9u3b5Y//+I9lbm7lvJSshWRbh8dkVBH16aefDhrUOnaNCzlRf0Dr/Ld+14xAoc85OeqcH3e+7oqpz/UtWVrZ2kEB6+eggzmhSwgggEAWAhRTs1CkDQQQQCBHAftvxOsPmh/NXJMLwUtRmw+ejSJj+MFUIt6f2nhQ3lArqI41Cq2hAuj1Y+MyNrXBrGDZeuhuFjgbD9kbGgXR5u/DBdK2B+eO7Rt9qR68XuxtPrQ326v9Sy2+NyZXCrY5jhWazkdA6xzMp7f1Vlnun0x3dnZWjhw5Irdu3Uq244Bb18bk6dOn5Rvf+EawnL/5SdRmEbXZrNaxm1kxNe6a8WjnObvjnBx1zo/LSds1Ieb6FtcWv3dewPo56HyG6CACCCAwmADF1MHc2AsBBBAoTMD6G/GIJY9tBdCuYupVOdTrk0Hhwmrzo55Jlv7H7R88mE9JULiNaj/qwT08EiKXd9YftlcKroUNHQ6UkYDWOZhR93o2w3J/c+F/+7d/kz/7sz+TiYkJ+dKXvmS+4wBb/uEPf5DPPvtM/uu//ku+/OUvyz333CN/8id/EtlSbZn/n/7pn8qFCxcGOFJ+u2RbTO1zzYg7Jzf+QNd2zo/rdviacy30ZYqN/RL9gS/uWPzeegGt1w/jOWh9BugAAgggkI8AxdR8XGkVAQQQyEzA9hvxyE9mNpZWBkXTjmLo+T2rZFtzpWznEnqTJZ/95CMLr6FiZ/Bg/YZMXrsgwYdoaz8xD87hw9UfosMvKFj57cbWJ3MzGxo0VJCA1jlYRPdZ7m+u/Pd///fyv//7v+Y7pNjyJz/5iVy+fDlo4YEHHpCHH3448suvau9KrRVf//Vf/zXF0bLf1biQY3DO73fNiD0nP3au+5wf191QTI+di1h5EL6+xbXF750X0Hr9MJ6DzmeIDiKAAAKDCVBMHcyNvRBAAIHCBGy/EU9aTF2BDb+HLuKVAFHFzua/9cpOEcVUlvQXNjeKOpDWOVhE/1nuX4Ry8mM0x2Tt/9f+75e//KXUlvh/73vfCz6p2vzROnaNCzkGxdR+14yxuNesJFnZ0DwQxdTkA9bjPayfgx7njq4jgAAC/QQopjI+EEAAAeUC1t+IRy2zDP9b7MNsgk+OGhVTo5bxN5aJxj24Gy3z/0hmwp9sVT6+CC9eQOscjI88my1Y7p+NY5atdI7J2idQo4qqWsduPsXUpnDomiG1Zfh9zsmx15+IrMWtVoh8tUCW2actmwSsn4M2YRMrAgggUKAAxdQCsTkUAgggMIiA/TfijU+Ytpbs9/kCqoj3z7Uts+/5ZSMdS/N7QRt9AVWfZf5rO7/MpMd/y8zKF04FD9YUWAcZ+1r20ToHi/RhuX+R2vHH6jUmO4uqtS+m+s1vfiO1f9f0Y1xMbXzJ38oXGDbOuRc31v9oFXfNaJ6ze52T4/5AFoUW8QVUc72ub5rQiaUUAa3XD/M5WAobB0UAAQTUC1BMVZ8iAkQAAd8F3LgRDy/Zrz4Ez2yQqanadzJ1vzNVguJj86Wptew3HpprnzqN++So0SdTq8XS4PiNY4Tfy2rUfvNhvjEyO9/rKh2/D8fv+2C2tP9a52CRnCz3L1I7/lhxYzJcVP3zP/9z+eCDD+IbLXCLRIWc1h/B6gHunp8X2TYt65srAPpdM4I9+pyT034yNbjm9Lm+FWjKoXQKxM3VsqJONAfLCpLjIoAAAooFKKYqTg6hIYAAAjUBbsQzHAeDPDhneHiaslNA6xwsWpPl/kWLpz/et7/9bfn0008t/mRqegNaQKBMAa3XD4qpZY4Kjo0AAi4IUEx1IYv0AQEEnBbgRjzD9FJMzRDTn6a0zsEyMsBy/zLUBz+m1rFLIWfwnLKnXQLMQbvyRbQIIICAqQDFVFMptkMAAQRKEuBG3BC+Yylo917V1wW8Mylv/IXh+1UND8tm7gtonYNlyLPcvwz1wY+pdeyqLaaaXEf4gsHBB6SHezIHPUw6XUYAAS8EKKZ6kWY6iQACNgtwI25z9ojdBQGtc7AsW5b7lyWf/Lhax67aYmpyYvZAoK8Ac5ABggACCLgpQDHVzbzSKwQQcEiAG3GHkklXrBTQOgfLxGS5f5n65sfWOnYppprnkC3tFmAO2p0/okcAAQR6CVBMZWwggAACygW4EVeeIMJzXkDrHCwTnuX+ZeqbH1vr2KWYap5DtrRbgDlod/6IHgEEEKCYyhhAAAEELBXgRtzSxBG2MwJa52DZwCz3LzsD8cfXOnYppsbnji3cEGAOupFHeoEAAgh0CvDJVMYEAgggoFyAG3HlCSI85wW0zkEN8Cz315CF3jFoHbsUU3WPG6LLToA5mJ0lLSGAAAKaBCimasoGsSCAAAIRAtyIMywQKFdA6xwsV6V+dJb7a8gCxVTdWSA6nwW0Xj/4g4bPo5K+I4BAFgIUU7NQpA0EEEAgRwFuxHPEpWkEDAS0zkGD0AvZhOX+hTAPdBCtY5dCzkDpZCcLBZiDFiaNkBFAAAEDAYqpBkhsggACCJQpwI14mfocGwERrXNQU25Y7q8pGyuxaB27FFN1jheiyl6AOZi9KS0igAACGgQopmrIAjEggAACfQS4EWd4IFCugNY5WK5K+9FZ7q8pGxRTdWaDqHwU0Hr94A8aPo5G+owAAlkKUEzNUpO2EEAAgRwEuBHPAZUmEUggoHUOJuhCIZuy3L8Q5kQH0Tp2KeQkSiMbWyzAHLQ4eYSOAAII9BGgmMrwQAABBJQLcCOuPEGE57yA1jmoEZ7l/rqyonXsUkzVNU6IJj8B5mB+trSMAAIIlClAMbVMfY6NAAIIGAhwI26AxCYI5CigdQ7m2OWBm2a5/8B0ueyodexSTM0l3TSqUIA5qDAphIQAAghkIEAxNQNEmkAAAQTyFOBGPE9d2kYgXkDrHIyPvJwtTpw4Ic8884x88sknsnbt2nKC4KiBgNaxSzGVAeqLAHPQl0zTTwQQ8E2AYqpvGae/CCBgnQA34taljIAdE9A6BzUzs9xfR3a0jl2KqTrGB1HkL8AczN+YIyCAAAJlCFBMLUOdYyKAAAIJBLgRT4DFpgjkIKB1DubQ1cyaZLl/ZpSpGtI6dimmpkorO1skwBy0KFmEigACCCQQoJiaAItNEUAAgTIEuBEvQ51jIrAioHUOas8Ry/3Lz5DWsUsxtfyxQQTFCDAHi3HmKAgggEDRAhRTixbneAgggEBCAW7EE4KxOQIZC2idgxl3M5fmWO6fC6txo1rHLsVU4xSyoeUCzEHLE0j4CCCAQA8BiqkMDQQQQEC5ADfiyhNEeM4LaJ2DNsCz3L/cLGkduxRTyx0XHL04AeZgcdYcCQEEEChSgGJqkdocCwEEEBhAgBvxAdDYBYEMBbTOwQy7mGtTLPfPlbdv41rHLsXU8sYERy5WgDlYrDdHQwABBIoSoJhalDTHQQABBAYU4EZ8QDh2QyAjAa1zMKPuFdIMy/0LYe46iNaxSzG1nPHAUYsXYA4Wb84REUAAgSIEKKYWocwxEEAAgRQC3IinwGNXBDIQ0DoHM+haYU3UlvuvX79evvvd78p3vvOdwo7r+4G0jl2Kqb6PTH/6zxz0J9f0FAEE/BKgmOpXvuktAghYKMCNuIVJI2SnBLTOQduQWe5ffMa0jl2KqcWPBY5YjgBzsBx3jooAAgjkLUAxNW9h2kcAAQRSCnAjnhKQ3RFIKaB1DqbsVim7/8Vf/IX8z//8j1y6dEn+3//7f6XE4NNBtY5diqk+jUK/+8oc9Dv/9B4BBNwVoJjqbm7pGQIIOCLAjbgjiaQb1gponYM2gv77v/+73H///fK3f/u38jd/8zc2dsGqmLWOXYqpVg0jgk0hwBxMgceuCCCAgGIBiqmKk0NoCCCAQE3AyRvx83tk1TaR+cqsPHr9mIyPvSGT1y7IwbUxOU+ybVHDR2NMRfXdk+NonYO28r/++uuyZ88euXLlinz1q1+1tRtWxK117BZeTA1fc/LIXNx1IO/j59En2sxEIGoOvvfee3Ljxg15+umnW8eI+rdMAujRSOFzMM/O0DYCCCBQggDF1BLQOSQCCCCQRMDJh+FBHyzjHliTwLItAoYCWuegYfgqN2O5fzFp0Tp2Cy/kDHrNySpNZR8/q37QTmKBqDlo+m+JD5Zgh8LnYILY2BQBBBCwQYBiqg1ZIkYEEPBawMmH4UEfLCmmej0Xyuq81jlYlkcWx2W5fxaK8W1oHbuFF3IGvebEE5ttUfbxzaJkqxwETAunRc/VwudgDrY0iQACCJQpQDG1TH2OjQACCBgIFH2DbRBSsEmyG/Hzsqe6rn8u2HOjzMxskKmpHsv8g4LplFwMBbJ7viKzj1b/oVlMDfavt1b7af0+Lvhg/6syOfNRdf/aEXbXXzUg1+XY+JgE/1RvsfHvzf/u+P3ueakEAYViqr2mQBqvLAjHt3FGrl04KCtvMIg7Vlwn+H3RAlrnYNEOWR+P5f5Zi3a3p3XsJrt+xJ1/o87pfa459RN373N+z+tEn3x1/aEv7vj5554j6BCgmKojD0SBAAIIZC1AMTVrUdpDAAEEMhaw/2G4/lD50cw1uRC8FLX5kNkoWIYfQpvFyPD7UxvF1Q21gupYo9AaKlBePzYuY1MbOoqfPZLQLNSGi6HNh+oNKwXSoM03JhtF0MZDd+v39firB2wv8LaKqbVCcEeRtrVvZ1u1+nD4WBkPHprLREDrHMykcyU3wnL/fBOgdeyaF1M7z5kd/x15To+55sSd8yPbjMlTWzE17vj55pzWdQnU5uCZM2fkhz/8YSuw2h+SfvOb38ixY8f6/luePdm6dav84he/kC1btuR5GNpGAAEEnBWgmOpsaukYAgi4ImD9w3DE8sa2AmhXMfWqHAo+LRrxEy6sNjdIsvQ/av/I5ZehgmlQwO3zBVld8U9JUPiNiu9a6Iu3Wt3rKM66MnAd6ofWOegCMcv9882i1rFrXEyNOj93fYFhxzk37ppjdM7vaDMuTeHrQMR5PtEf/eKOxe+tEqjNwR/84Afy+9//Xl3cFFPVpYSAEEDAIgGKqRYli1ARQMBPAdsfhiM/edlYRhkUTTuKoef3rJJtzRX8bZ8greY/qnCauJjaXhitP+SGXyqwMs421j5Ne+8/SP2DqP0KvI02oz5Z2/gkbu2TrN/5LOZYwSd3+dEmoHUOanMaNB6W+w8qF7+f1rGbqJg6vb79VSkxqxnirjljcef8x871/wNaFHsopsfORaw2CF/z4tPGFg4JaF3m7xAxXUEAAQRKEaCYWgo7B0UAAQTMBWx/GI57sO0spq7IhN85F/FKgGbdMYtiamtJf0Re4r44JO41BZ3F1H7HMh8WbFmggNY5WCBB7odiuX8+xFrHbunF1H7n4STXlGbaKKbmM4AdaJViqgNJpAsIIIBAhADFVIYFAgggoFzAiYfhzk92di3T7LOMPlSMrL8ztWPbJA++UdsGsXwkM+H3tIbHRFz7Rsv8G68uiDuW8rHoa3ha56BL+WC5fz7Z1Dp2ExVTO8/PcdePuFcDxJ2H4875UamKWeYvcX+Uyyf9tKpAgGKqgiQQAgIIIJCDAMXUHFBpEgEEEMhSwPqH4eYXTrWW7Pf5Aqqod4rGffIzyYNv5LaNLzSRmZWlpG0P2yZfgBJe5m/wBVQ9j5XlyKGtrAS0zsGs+qelHZb7Z58JrWPXuJja9WVRUV9A1fnHuMY1ptc1p9lmr/Nw5OtaYnIT8QVUcz2Pn32eaVGvAMVUvbkhMgQQQCCNAMXUNHrsiwACCBQgYP/DcA0pvGR/o8zMbJCpqcZ7SDsLnEEhs/nS1Nq+1e2bnxrN4Z2p9RQ2HtBbr04NHTPq9+F3uUYVe4P+NfrQ+d7X2GMVMKg4RCIBrXMwUScs2Zjl/tkmSuvYNS+mRpyfe51/21453eeaE3fOT/IHuma6uvaJO362eaY1vQJRc/C9996TGzduyNNPP90KPOrf9PaKyBBAAAEEKKYyBhBAAAHlAm48DCtHziq8QR7Cszo27eQmoHUO5tbhEhtmuX+2+FrHbrJiarYmtIZAkQJa52CRBhwLAQQQcFGAYqqLWaVPCCDglIDWG3EehiOGGcVUp+ZeszNa56CT2NVOsdw/u8xqHbtcP7LLMS3pFtA6B3WrER0CCCCgX4Biqv4cESECCHguoPVGXN3DcFDIrL2vtNdP59L9HAYWxdQcUMtvUuscLF8mvwhY7p+Nrdaxq+760Y9bw7Ulm+FAKyUIaJ2DJVBwSAQQQMApAYqpTqWTziCAgIsCWm/ErXoYdnFg0KfCBLTOwcIASjgQy/2zQdc6drl+ZJNfWtEvoHUO6pcjQgQQQEC3AMVU3fkhOgQQQEC03ojzMMzg9EVA6xx03Z/l/ukzrHXscv1In1tasENA6xy0Q48oEUAAAb0CFFP15obIEEAAgUBA6404D8MMUF8EtM5BH/xZ7p8uy1rHLtePdHllb3sEtM5BewSJFAEEENApQDFVZ16ICgEEEGgJaL0R52GYQeqLgNY56IM/y/3TZVnr2OX6kS6v7G2PgNY5aI8gkSKAAAI6BSim6swLUSGAAAIUUxkDCCgR4GG43ESw3H9wf61jl2Lq4DllT7sEtM5BuxSJFgEEENAnQDFVX06ICAEEEGgT0HojzsMwA9UXAa1z0Bf/Wj9Z7j9YtrWOXa4fg+WTvewT0DoH7ZMkYgQQQECXAMVUXfkgGgQQQKBLQOuNOA/DDFZfBLTOQV/8a/1kuf9g2dY6drl+DJZP9rJPQOsctE+SiBFAAAFdAhRTdeWDaBBAAAGKqYwBBJQJ8DCsIyEs90+eB61jl2Jq8lyyh50CWuegnZpEjQACCOgRoJiqJxdEggACCEQKaL0R52GYAeuLgNY56It/uJ8s90+Wda1jl+tHsj/lK5AAABU4SURBVDyytb0CWuegvaJEjgACCOgQoJiqIw9EgQACCPQU0HojzsMwg9YXAa1z0Bf/cD9Z7p8s61rHLtePZHlka3sFtM5Be0WJHAEEENAhQDFVRx6IAgEEEKCYyhhAQKkAD8O6EsNyf/N8aB27FFPNc8iWdgtonYN2qxI9AgggUL4AxdTyc0AECCCAQF8BrTfiPAwzcH0R0DoHffGP6ifL/c2yr3Xscv0wyx9b2S+gdQ7aL0sPEEAAgXIFKKaW68/REUAAgVgBrTfiPAzHpo4NHBHQOgcd4R2oGyz3N2PTOna5fpjlj63sF9A6B+2XpQcIIIBAuQIUU8v15+gIIIBArIDWG3EehmNTxwaOCGidg47wDtwNlvvH02kdu1w/4nPHFm4IaJ2DbujSCwQQQKA8AYqp5dlzZAQQQMBIQOuNOA/DRuljIwcEtM5BB2hTd4Hl/v0JtY5drh+phz4NWCKgdQ5awkeYCCCAgFoBiqlqU0NgCCCAQF1A6404D8OMUF8EtM5BX/z79ZPl/hRTmQcIaBbg+qE5O8SGAAIIDC5AMXVwO/ZEAAEEChHQeiNOMbWQ9HMQBQJa56ACGhUhsNy/dxq0jl2uHyqmDkEUIKB1DhbQdQ6BAAIIOC1AMdXp9NI5BBBwQUDrjTgPwy6MLvpgIqB1DprE7ss2LPePzrTWscv1w5eZST+1zkEygwACCCCQToBiajo/9kYAAQRyF9B6I87DcO6p5wBKBLTOQSU8KsJguT/FVBUDkSAQ6BDg+sGQQAABBNwUoJjqZl7pFQIIOCSg9UacYqpDg4yu9BXQOgdJW7sAy/27R4TWscv1g9nri4DWOeiLP/1EAAEE8hKgmJqXLO0igAACGQlovRHnYTijBNOMegGtc1A9XAkBsty/HV3r2OX6UcLk4JClCGidg6VgcFAEEEDAIQGKqQ4lk64ggICbAlpvxHkYdnO80atuAa1zkFx1C7Dcn2Iq8wIBTQJcPzRlg1gQQACB7AQopmZnSUsIIIBALgJab8QppuaSbhpVKKB1DiqkUhHSyZMn5dvf/rZcuXJFvvrVr6qIqawgtI5drh9ljQiOW7SA1jlYtAPHQwABBFwToJjqWkbpDwIIOCeg9UY81cPw+T2yapvIfGVWHr1+TMbH3pDJaxfk4NqY9CXZ1rmRQIfKEtA6B8vysOG4LPevZ0nr2E11/bBhAF4/L+flUXk07ppm2Jfrx8ZlbOpideuNMmNyrexsl2uuoXT2m2mdg9n3lBYRQAABvwQopvqVb3qLAAIWCmi9EU/1MBx+sEuSE4qpSbTYNiMBrXMwo+452QzL/SmmljawM79OnZc99b8+yuyjA/aKa+6AcOl34/qR3pAWEEAAAY0CFFM1ZoWYEEAAgZCA1htxiqkMU18EtM5BX/wH7SfL/flk6qBjJ9V+WRdTs2iPYmqqlKbZmetHGj32RQABBPQKUEzVmxsiQwABBAIBrTfiyYqp9U/WzAU9qi5TnNkgU1M9lvkHD45TUlvQ2PzZ3fxETvOhMti/3lrtp/X7uDHT3H9+Ut7YtnKMtv0jjr9x5ppcqL2DoMf+we8fO9cWd3tM1+XY+JgEqzTrEddfcRAXL79XIaB1DqrAUR6E78v9tY7dRNePIs7Ju+el0vzYZ1TxMvxv0ng1TdR1ZKz9+tW6dsTOk45rRDOezr6H4+zbppJrbmy/3d9A6xx0X54eIoAAAvkKUEzN15fWEUAAgdQCWm/EzR+G6w91HzULktU3ydULq42CYtRDavidcI2HyQ21gmrzQXXjjFy7cFBqr6Orv0tug1lxsvlg2nP/7uWUbe333L9aJe3ZZuMhecPKw3rQ5huTrT6kHiQ0kKuA1jmYa6cdadz35f5ax27S60d4iXv25+SOc7RRMbX6x7he5/zEnyTtvEYYxGNQSFVxzXXkPJKmG1rnYJo+sS8CCCCAgAjFVEYBAgggoFxA64248cNwxPLC7ofhxhdQBZ/4uSqHen1qM1xYbX6sM8mDa9z+cl2ur10bFGlbP13F3ikJCrttx4/6t0afroW+bKvVaAbvwFM+bl0KT+scdMk4z774vNxf69g1vn5cL+icHPcFTUbXgfB1zPBLFWsDP2oJflw8/SaMpmtunhPbkra1zkFL+AgTAQQQUCtAMVVtaggMAQQQqAtovRE3fRiO/BRm8GDaKJp2FEPP71kl25or+DuXNMZ9Yijum5NN9w8eRldeI9D6BuXm8s6uT852PDiHjvPYuea3MHePaPMloMyGMgW0zsEyTWw7tq/L/bWOXdPrx8rfn7I7Jx+s/YFren37ygCjFRJ9iqVx+8cVP5PG06c9Vddc204UOcSrdQ7m0FWaRAABBLwSoJjqVbrpLAII2Cig9Ubc9GE46YPdSo7C73yLeCVAs3Ca+JOpvQufB9c2j1l9r2uzYBr3kBxToA2KqSzpt3HqtWLWOgetRi04eF+X+2sdu6bXj+rHNhuvhcnunEwxtfHO1/AfBYP5mMM1t+B5rvFwWuegRitiQgABBGwSoJhqU7aIFQEEvBTQeiNu/DCcegljaEl88M7UfsXQmCES98nUqE8sBfF/VC+uDvDJ1ODBvbl/3CdnvRzh+jutdQ7ql9MVoY/L/bWO3UTXj85PbeZxTo5bVp/kj2pR14l+UyHcn+Y1Ii6e2PYaX/DY3C5Rexlec3WdAkqJRuscLAWDgyKAAAIOCVBMdSiZdAUBBNwU0Hojbvww3Py0S2vJfp8voIp6v2iSh9i4YqVJMTVc+Gx9k3LjU1GDFFPXNr5MRFa+NKv+jrxGgTYuZjeHtVW90joHrUJUEqxvy/21jl3j60fnuTLLc3LrSwE7vwCq80sTG7+/aHodSPpO7Hy+gGpOwzVXybwvMwytc7BME46NAAIIuCBAMdWFLNIHBBBwWkDrjbjxw3CQnfDyweoD6cwGmZpqfHKms8DZ632ltaJjXDE0rjBpsH/bO1ul9vB8SK6ObasFK7Omn4ztOk7zYbw5VENLVp0evW50TuscdEO32F74ttxf69hNcv0o5Jwc+X7uKbnYGJ675+dFtk3LesMVCq2YO9vtOdw7rhHh/ZK8yqbVvpJrbrHTW+XRtM5BlVgEhQACCFgkQDHVomQRKgII+Cmg9UY8ycOwn5mj164IaJ2DrvgW3Q+flvtrHbtcP4oe9RyvLAGtc7AsD46LAAIIuCJAMdWVTNIPBBBwVkDrjTgPw84OOTrWIaB1DpKowQV8We6vdexy/Rh87LKnXQJa56BdikSLAAII6BOgmKovJ0SEAAIItAlovRFX9zDcepderwHE0nqm1mACWufgYL1hr5qAL8v9tY5dddePvKZF1telrNvLq9+02xLQOgdJEQIIIIBAOgGKqen82BsBBBDIXUDrjbg3D8O5Z5gDaBfQOge1u2mPz4fl/lrHLtcP7bOD+LIS0DoHs+of7SCAAAK+ClBM9TXz9BsBBKwR0HojzsOwNUOIQFMKaJ2DKbvF7lUB15f7ax27XD+Yfr4IaJ2DvvjTTwQQQCAvAYqpecnSLgIIIJCRgNYbcR6GM0owzagX0DoH1cNZEKDry/21jl2uHxZMDkLMREDrHMykczSCAAIIeCxAMdXj5NN1BBCwQ0DrjTgPw3aMH6JML6B1DqbvGS3UBFxe7q917HL9YO75IqB1DvriTz8RQACBvAQopuYlS7sIIIBARgJab8R5GM4owTSjXkDrHFQPZ1GAri731zp2uX5YNDkINZWA1jmYqlPsjAACCCAgFFMZBAgggIByAa034jwMKx84hJeZgNY5mFkHaUhcXe6vdexy/WDS+SKgdQ764k8/EUAAgbwEKKbmJUu7CCCAQEYCWm/EeRjOKME0o15A6xxUD2dZgC4u99c6drl+WDY5CHdgAa1zcOAOsSMCCCCAQCBAMZWBgAACCCgX0HojzsPw/2/vjnmbSMIwAA8VBQUU/IAU0CBFuEPQ0BJ0NS2pgJJUiOKE0kGVUHJVaiQkihO0BiGgv+KKIORfgBB/gMtuYp+TOHFs73q/2X0sIYTjnfnmmRklvNrZBF84yqtMIOoerGyAGhoJtO24f9S16/uHTdcVgah7sCv+xkmAAIG6BISpdclqlwABAhUJRP1B3H+GK5pgzYQXiLoHw8NlWGDbjvtHXbu+f2S4OZQ8l0DUPTjXYFxEgAABAiMBYarFQIAAgeACUX8Q95/h4AtHeZUJRN2DlQ1QQ4cE2nTcP+ra9f3DpuuKQNQ92BV/4yRAgEBdAsLUumS1S4AAgYoEih/ENzc3K2pNMwQIzCNw+/bt1O/357nUNRkKtOW4f9QgR5ia4aZQ8lwCUffgXINxEQECBAiMBISpFgMBAgSCCwwGg1T88SJAoDmBS5cupV6v11wBel6qQFuO+0cNcoSpS13OOmtQIOoebJBE1wQIEGiFgDC1FdNoEAQIECBAgAABAlUKtOG4f9QgR5ha5UrVVmSBqHswspnaCBAgkIOAMDWHWVIjAQIECBAgQIDA0gVyP+4fNcgRpi59KeuwIYGoe7AhDt0SIECgNQLC1NZMpYEQIECAAAECBAhUKZD7cf+oQY4wtcpVqq3IAlH3YGQztREgQCAHAWFqDrOkRgIECBAgQIAAgUYEcj7uHzXIEaY2spR12oBA1D3YAIUuCRAg0CoBYWqrptNgCBAgQIAAAQIEqhbI9bh/1CBHmFr1CtVeVIGoezCql7oIECCQi4AwNZeZUicBAgQIECBAgEAjArke948a5AhTG1nGOm1AIOoebIBClwQIEGiVgDC1VdNpMAQIECBAgAABAnUI5HjcP2qQI0ytY4VqM6JA1D0Y0UpNBAgQyElAmJrTbKmVAAECBAgQIECgMYHcjvtHDXKEqY0tYR0vWSDqHlwyg+4IECDQOgFhauum1IAIECBAgAABAgTqEMjtuH/UIEeYWsfq1GZEgah7MKKVmggQIJCTgDA1p9lSKwECBAgQIECAQKMCOR33jxrkCFMbXcI6X6JA1D24RAJdESBAoJUCwtRWTqtBESBAgAABAgQI1CWQy3H/qEGOMLWulandaAJR92A0J/UQIEAgNwFham4zpl4CBAgQIECAAIFGBXI57h81yBGmNrp8db5Egah7cIkEuiJAgEArBYSprZxWgyJAgAABAgQIEKhToMnj/v1+Pw0Gg7S+vj5xiD9//kwvX75Mz58/T9evX09fv36tk2LmthcKU98/TOfupvTu96u09m073br6Ot3b/ZweX5lSxiyfndTUtOvH65pZxAVtFRCmtnVmjYsAga4LCFO7vgKMnwABAgQIECBAYC6Bpo77nxTQDEPU7e3tdPHixdTr9VLxXhG+RnpVFqbOMqhpYegsbU36rDB1UcFWXi9MbeW0GhQBAgSSMNUiIECAAAECBAgQIDCHwPC4/9OnT9OTJ0/maGG+S44GNEdD1OLrxV2rUYMcYep88+6q/ASi7sH8JFVMgACBWALC1FjzoRoCBAgQIECAAIGMBJo47j8MaN6+fVse5x/eiToMUYd8UYOc2cLU9+nh3rn+v8pB3UxbW6tpY+OEY/7l3acb6cvY+nnw7nd6tbb3xvDO1PL6/daK1+jr09bcsTtbT6lrWlu+3hmBqHuwMxNgoAQIEKhJQJhaE6xmCRAgQIAAAQIEuiGwtraWfvz4kV68eLGUAe/s7KQ3b96UfV24cKG8C/XOnTvH+i4+9/379/Tx48el1HXWTs4epu4Hlv9s7abP5UNRhwHmg+PPTE0Tnp96EK6uFoHq1YOg9eZW2v38OBWtfdu+la5urO63Na34Q2HqlLqmteXrnREQpnZmqg2UAIGOCQhTOzbhhkuAAAECBAgQIFCtQHHc/9q1a+nXr1/VNlxBazdu3Mj3F1BNeA7poQB0POAsw9R/058nBaPjweowOZ3lOarjn90d+yVYB3M0UzBbwbxqIg8BYWoe86RKAgQIzCogTJ1VzOcJECBAgAABAgQINChQBDTFXacrKyvpw4cP5Z2pz549K/89/ooa5Jz1ztQyoHx9b3QnaTm2MtQ8CE2PhKHvH55Ld4cn+B+8S7/L8/2jtHPvutfp3u7nVN7kOmrryHsnzetYX3/8PaWuBteGrmMJRN2DsZRUQ4AAgfwEhKn5zZmKCRAgQIAAAQIEOiwwHtD0+/3yF01NClWjBjl1han/L4nx55lOeCSAMLXDu2e5Q4+6B5eroDcCBAi0T0CY2r45NSICBAgQIECAAIEWC0wKaCaFqsXdq8X7xZ9Ir7OGqWnCMf9D7009pr8fqu49FPXgmanV3Jn6eMIx/4m1RkJXSyMCwtRG2HVKgACB2gWEqbUT64AAAQIECBAgQIBAdQKnBTTjoWqv10vnz5/P95mpw184NTqyf8ovoJoUcB57pmpFYeqVgzpOqqu6qdZS5gLC1MwnUPkECBA4QUCYamkQIECAAAECBAgQyEigCEwHg0H5rNSTXsVnHj16lC5fvpw+ffoUanRnvjO1rHr8yP7NtLW1mjY2iptNX6W1o3emlneyDh+aWly79/nhM1In3cU69c7WMbZjnz2lrlDaimlSQJjapL6+CRAgUJ+AMLU+Wy0TIECAAAECBAgQaEwgapAzW5jaGJ+OCSwsEHUPLjwwDRAgQKDjAsLUji8AwydAgAABAgQIEGinQNQgR5jazvVmVMcFou5Bc0WAAAECiwkIUxfzczUBAgQIECBAgACBkAJRg5xwYWp5hH8jfTlxFsceFxByphUVVSDqHozqpS4CBAjkIiBMzWWm1EmAAAECBAgQIEBgBoGoQU64MHUGUx8lMItA1D04yxh8lgABAgSOCwhTrQoCBAgQIECAAAECLRSIGuQIU1u42AxpokDUPWi6CBAgQGAxAWHqYn6uJkCAAAECBAgQIBBSIGqQI0wNuVwUVYNA1D1Yw1A1SYAAgU4JCFM7Nd0GS4AAAQIECBAg0BWBqEGOMLUrK9A4o+5BM0OAAAECiwkIUxfzczUBAgQIECBAgACBkAJRgxxhasjloqgaBKLuwRqGqkkCBAh0SkCY2qnpNlgCBAgQIECAAIGuCEQNcoSpXVmBxhl1D5oZAgQIEFhMQJi6mJ+rCRAgQIAAAQIECIQUiBrkCFNDLhdF1SAQdQ/WMFRNEiBAoFMCwtROTbfBEiBAgAABAgQIdEUgapAjTO3KCjTOqHvQzBAgQIDAYgLC1MX8XE2AAAECBAgQIEAgpEAR5Ozs7KT19fVQ9W1ubqb79++nlZWVUHUphkDVAv1+v2xy+HfV7WuPAAECBJoR+A99s02lWKqPRQAAAABJRU5ErkJggg==;" vertex="1" parent="1">
          <mxGeometry x="410" y="750" width="1870.79" height="840" as="geometry" />
        </mxCell>
        <mxCell id="Z1L8P6y6DJ4cS7PngGkb-3" value="dish_recipe" style="shape=table;startSize=30;container=1;collapsible=1;childLayout=tableLayout;fixedRows=1;rowLines=0;fontStyle=1;align=center;resizeLast=1;html=1;" vertex="1" parent="1">
          <mxGeometry x="600" y="1350" width="180" height="150" as="geometry" />
        </mxCell>
        <mxCell id="Z1L8P6y6DJ4cS7PngGkb-4" value="" style="shape=tableRow;horizontal=0;startSize=0;swimlaneHead=0;swimlaneBody=0;fillColor=none;collapsible=0;dropTarget=0;points=[[0,0.5],[1,0.5]];portConstraint=eastwest;top=0;left=0;right=0;bottom=1;" vertex="1" parent="Z1L8P6y6DJ4cS7PngGkb-3">
          <mxGeometry y="30" width="180" height="30" as="geometry" />
        </mxCell>
        <mxCell id="Z1L8P6y6DJ4cS7PngGkb-5" value="PK" style="shape=partialRectangle;connectable=0;fillColor=none;top=0;left=0;bottom=0;right=0;fontStyle=1;overflow=hidden;whiteSpace=wrap;html=1;" vertex="1" parent="Z1L8P6y6DJ4cS7PngGkb-4">
          <mxGeometry width="30" height="30" as="geometry">
            <mxRectangle width="30" height="30" as="alternateBounds" />
          </mxGeometry>
        </mxCell>
        <mxCell id="Z1L8P6y6DJ4cS7PngGkb-6" value="recipe_id" style="shape=partialRectangle;connectable=0;fillColor=none;top=0;left=0;bottom=0;right=0;align=left;spacingLeft=6;fontStyle=5;overflow=hidden;whiteSpace=wrap;html=1;" vertex="1" parent="Z1L8P6y6DJ4cS7PngGkb-4">
          <mxGeometry x="30" width="150" height="30" as="geometry">
            <mxRectangle width="150" height="30" as="alternateBounds" />
          </mxGeometry>
        </mxCell>
        <mxCell id="Z1L8P6y6DJ4cS7PngGkb-7" value="" style="shape=tableRow;horizontal=0;startSize=0;swimlaneHead=0;swimlaneBody=0;fillColor=none;collapsible=0;dropTarget=0;points=[[0,0.5],[1,0.5]];portConstraint=eastwest;top=0;left=0;right=0;bottom=0;" vertex="1" parent="Z1L8P6y6DJ4cS7PngGkb-3">
          <mxGeometry y="60" width="180" height="30" as="geometry" />
        </mxCell>
        <mxCell id="Z1L8P6y6DJ4cS7PngGkb-8" value="" style="shape=partialRectangle;connectable=0;fillColor=none;top=0;left=0;bottom=0;right=0;editable=1;overflow=hidden;whiteSpace=wrap;html=1;" vertex="1" parent="Z1L8P6y6DJ4cS7PngGkb-7">
          <mxGeometry width="30" height="30" as="geometry">
            <mxRectangle width="30" height="30" as="alternateBounds" />
          </mxGeometry>
        </mxCell>
        <mxCell id="Z1L8P6y6DJ4cS7PngGkb-9" value="dish_id" style="shape=partialRectangle;connectable=0;fillColor=none;top=0;left=0;bottom=0;right=0;align=left;spacingLeft=6;overflow=hidden;whiteSpace=wrap;html=1;" vertex="1" parent="Z1L8P6y6DJ4cS7PngGkb-7">
          <mxGeometry x="30" width="150" height="30" as="geometry">
            <mxRectangle width="150" height="30" as="alternateBounds" />
          </mxGeometry>
        </mxCell>
        <mxCell id="Z1L8P6y6DJ4cS7PngGkb-10" value="" style="shape=tableRow;horizontal=0;startSize=0;swimlaneHead=0;swimlaneBody=0;fillColor=none;collapsible=0;dropTarget=0;points=[[0,0.5],[1,0.5]];portConstraint=eastwest;top=0;left=0;right=0;bottom=0;" vertex="1" parent="Z1L8P6y6DJ4cS7PngGkb-3">
          <mxGeometry y="90" width="180" height="30" as="geometry" />
        </mxCell>
        <mxCell id="Z1L8P6y6DJ4cS7PngGkb-11" value="" style="shape=partialRectangle;connectable=0;fillColor=none;top=0;left=0;bottom=0;right=0;editable=1;overflow=hidden;whiteSpace=wrap;html=1;" vertex="1" parent="Z1L8P6y6DJ4cS7PngGkb-10">
          <mxGeometry width="30" height="30" as="geometry">
            <mxRectangle width="30" height="30" as="alternateBounds" />
          </mxGeometry>
        </mxCell>
        <mxCell id="Z1L8P6y6DJ4cS7PngGkb-12" value="recipe" style="shape=partialRectangle;connectable=0;fillColor=none;top=0;left=0;bottom=0;right=0;align=left;spacingLeft=6;overflow=hidden;whiteSpace=wrap;html=1;" vertex="1" parent="Z1L8P6y6DJ4cS7PngGkb-10">
          <mxGeometry x="30" width="150" height="30" as="geometry">
            <mxRectangle width="150" height="30" as="alternateBounds" />
          </mxGeometry>
        </mxCell>
        <mxCell id="Z1L8P6y6DJ4cS7PngGkb-13" value="" style="shape=tableRow;horizontal=0;startSize=0;swimlaneHead=0;swimlaneBody=0;fillColor=none;collapsible=0;dropTarget=0;points=[[0,0.5],[1,0.5]];portConstraint=eastwest;top=0;left=0;right=0;bottom=0;" vertex="1" parent="Z1L8P6y6DJ4cS7PngGkb-3">
          <mxGeometry y="120" width="180" height="30" as="geometry" />
        </mxCell>
        <mxCell id="Z1L8P6y6DJ4cS7PngGkb-14" value="" style="shape=partialRectangle;connectable=0;fillColor=none;top=0;left=0;bottom=0;right=0;editable=1;overflow=hidden;whiteSpace=wrap;html=1;" vertex="1" parent="Z1L8P6y6DJ4cS7PngGkb-13">
          <mxGeometry width="30" height="30" as="geometry">
            <mxRectangle width="30" height="30" as="alternateBounds" />
          </mxGeometry>
        </mxCell>
        <mxCell id="Z1L8P6y6DJ4cS7PngGkb-15" value="" style="shape=partialRectangle;connectable=0;fillColor=none;top=0;left=0;bottom=0;right=0;align=left;spacingLeft=6;overflow=hidden;whiteSpace=wrap;html=1;" vertex="1" parent="Z1L8P6y6DJ4cS7PngGkb-13">
          <mxGeometry x="30" width="150" height="30" as="geometry">
            <mxRectangle width="150" height="30" as="alternateBounds" />
          </mxGeometry>
        </mxCell>
        <mxCell id="Z1L8P6y6DJ4cS7PngGkb-18" value="" style="edgeStyle=entityRelationEdgeStyle;fontSize=12;html=1;endArrow=ERone;endFill=1;rounded=0;entryX=1;entryY=0.5;entryDx=0;entryDy=0;exitX=0.267;exitY=0.726;exitDx=0;exitDy=0;exitPerimeter=0;" edge="1" parent="1" source="Z1L8P6y6DJ4cS7PngGkb-2" target="Z1L8P6y6DJ4cS7PngGkb-7">
          <mxGeometry width="100" height="100" relative="1" as="geometry">
            <mxPoint x="800" y="1510" as="sourcePoint" />
            <mxPoint x="780" y="1400" as="targetPoint" />
          </mxGeometry>
        </mxCell>
        <mxCell id="Z1L8P6y6DJ4cS7PngGkb-20" value="" style="edgeStyle=entityRelationEdgeStyle;fontSize=12;html=1;endArrow=ERzeroToMany;endFill=1;rounded=0;exitX=1;exitY=0.5;exitDx=0;exitDy=0;" edge="1" parent="1" source="Z1L8P6y6DJ4cS7PngGkb-4">
          <mxGeometry width="100" height="100" relative="1" as="geometry">
            <mxPoint x="800" y="1550" as="sourcePoint" />
            <mxPoint x="910" y="1460" as="targetPoint" />
          </mxGeometry>
        </mxCell>
      </root>
    </mxGraphModel>
  </diagram>
</mxfile>
